<?xml version="1.0" encoding="utf-8"?>
<!-- Generator: Adobe Illustrator 26.2.1, SVG Export Plug-In . SVG Version: 6.00 Build 0)  -->
<svg version="1.1" id="Layer_1" xmlns="http://www.w3.org/2000/svg" xmlns:xlink="http://www.w3.org/1999/xlink" x="0px" y="0px"
	 viewBox="0 0 568 78" style="enable-background:new 0 0 568 78;" xml:space="preserve">
<style type="text/css">
	.st0{fill:#454d5d;}
</style>
<g id="_x38_PoVNT.tif">
	<g>
		<path class="st0" d="M13.26,38.13c-1.22,0.46-2.44,1.27-3.67,1.3c-2.27,0.05-4.92,0.17-5.87-2.59c-1.36-3.94-0.17-8.42,2.49-10.19
			c2.92-1.95,5.92-3.77,8.73-5.87c0.48-0.36,0.56-2.31,0.12-2.68c-2.05-1.7-4.21-3.4-6.6-4.53C5.45,12.15,5,12.49,4.42,15.84
			c-0.24,1.39,0.03,2.92,0.33,4.33c0.13,0.64,0.9,1.15,1.38,1.71c0.19-0.09,0.37-0.18,0.56-0.27c-0.07-0.59-0.23-1.17-0.21-1.76
			c0.06-1.56,0.29-3.11,2.34-3.16c1.61-0.04,2.95,1.74,2.75,3.49C11.27,22.9,7.85,24.57,5,23.61c-3.43-1.16-5.59-9.1-2.75-11.29
			c2.28-1.75,3.27-4.25,3.84-7.02c0.58-2.82,4.02-4.22,6.75-3.05c0.91,0.39,2.17,0.8,2.98,0.47c3.23-1.29,5.79-0.31,8.29,1.69
			c0.72,0.58,1.72,1.17,2.57,1.15c3.24-0.08,5.68,0.97,7.01,4.06c0.16,0.38,0.34,0.75,0.53,1.16c1.42-1.75,2.23-3.6,3.59-4.18
			c1.24-0.53,3.08,0.31,4.76,0.55c0.91-0.87,1.95-2.1,3.22-3.01c4.86-3.51,10.17-3,13.79,1.62c2.6,3.32,9.71,4.86,14.02,3.67
			c0.81-0.22,1.39-1.28,2.08-1.94c-0.15-0.18-0.31-0.36-0.46-0.54c-0.33,0.13-0.65,0.28-0.98,0.4c-1.14,0.41-2.72,1.46-3.32,1.06
			c-0.99-0.66-1.86-2.26-1.86-3.46c-0.01-1.49,1.4-2.17,3.03-2.32c2.95-0.28,4.5,0.33,5.04,2.34c0.59,2.2-0.84,4.3-3.07,5.54
			c-4.04,2.23-7.76-0.1-11.61-0.44C61.8,10,61.2,9.78,60.62,9.64c-1.29,2.8,0.64,7.04-4.55,7.97c0.54-0.77,0.77-1.24,1.13-1.6
			c1.32-1.32,1.77-2.74,0.78-4.47c-1.12-1.94-2.82-2.82-4.98-2.56c-3.46,0.42-7.04,4.41-7.29,7.87c-0.27,3.84-1.21,7.34-5.14,9.09
			c3.52,10.65,1.18,16.43-8.84,21.98c1.74,0.65,7.46-0.98,9.6-3.06c3.49-3.38,7.36-6.56,8.01-11.89c0.58-4.81,0.67-9.54-2.46-14.15
			c1.23-0.06,1.95-0.31,2.46-0.09c5.14,2.24,9.49,0.12,13.97-2.14c3.75-1.9,7.72-3.34,11.59-5c1.51-0.64,2.95-1.55,4.52-1.91
			c3.11-0.7,6.28-1.08,9.43-1.61c0.46-0.08,0.9-0.25,0.79-0.21c0.09-1.62-0.31-3.55,0.32-3.98c1.37-0.93,3.29-1.46,4.94-1.38
			c0.68,0.03,1.64,2.04,1.78,3.22c0.2,1.65,0.52,2.27,2.37,2.21c2.02-0.06,4.06,0.49,5.88,0.74c0.39-1.73,0.43-3.35,1.13-4.58
			c0.49-0.85,1.83-1.4,2.9-1.71c4.05-1.15,6.08,1.48,7.87,4.64c2.1-2.58,4.66-4.43,7.85-3.28c2.6,0.93,3.03,3.38,2.11,7.64
			c2.35,0.8,4.73,1.61,7.37,2.52c0-1.05,0-1.88,0-2.69c-1.01-0.16-2.1-0.03-2.68-0.51c-0.67-0.55-1.35-1.73-1.2-2.48
			c0.18-0.89,1.13-2.14,1.93-2.29c1.63-0.31,3.48-0.31,5.06,0.16c1.38,0.41,1.93,0.17,2.57-0.95c0.7-1.22,1.52-2.38,2.42-3.45
			c0.37-0.44,1.13-0.9,1.62-0.81c0.47,0.09,0.94,0.8,1.2,1.34c0.59,1.24,1.04,2.54,1.55,3.82c0.4,0.27,0.81,0.53,1.21,0.8
			c0.38-0.83,0.58-2.18,1.17-2.38c1.4-0.46,3.09-0.76,4.44-0.36c0.74,0.22,1.39,1.97,1.4,3.03c0.01,0.83-1.04,1.66-1.62,2.5
			c-0.23-0.12-0.47-0.24-0.7-0.36c-0.03-0.53,0.07-1.11-0.12-1.57c-0.28-0.71-0.77-1.33-1.17-1.99c-0.93,0.73-1.9,1.42-2.72,2.26
			c-0.09,0.1,0.66,1.07,1.08,1.59c0.98,1.21,2.08,2.34,2.97,3.62c0.35,0.5,0.27,1.29,0.43,2.16c0.85-1.57,1.23-3.11,2.22-3.89
			c1-0.78,2.63-0.72,3.91-1.2c0.84-0.31,1.56-0.94,2.34-1.43c-0.68-0.38-1.33-0.86-2.06-1.1c-1.57-0.52-2-3.17-0.69-4.6
			c2.81-3.07,5.62-2.86,8.13,0.61c0.23,0.32,0.6,0.54,0.73,0.66c1.71-1.06,3.22-2.17,4.87-2.99c2.05-1.02,3.95-0.46,5.32,1.31
			c0.47,0.61,0.95,1.95,0.66,2.28c-0.88,1-2.06,1.87-3.3,2.36c-0.53,0.2-1.48-0.69-2.24-1.09c0.09-0.24,0.18-0.48,0.26-0.72
			c0.81,0,1.62,0,2.44,0c0.11-0.19,0.23-0.37,0.34-0.56c-0.48-0.47-0.89-1.2-1.46-1.37c-1.94-0.59-4.78,1.19-5.29,3.16
			c-1.4,5.49-5.26,8.44-11.03,8.65c-1.22,0.04-2.42,0.66-4.15,1.17c5.19,3.67,5.91,5.55,4.28,9.72c-1.11,2.83-3.57,4.38-5.85,4.04
			c0.13-1.34,0.77-2.95,0.22-3.85c-0.44-0.72-2.84-1.19-3.45-0.68c-1.34,1.13-2.13,2.93-3.04,4.52c-0.07,0.12,0.61,0.91,1.05,1.05
			c2.49,0.84,5.09,1.41,7.51,2.43c1.66,0.7,2.16,0.33,2.58-1.27c1.42-5.37,3.41-10.43,6.74-15.03c3.1-4.28,7.61-6.23,11.96-8.6
			c3.76-2.05,7.84-2.58,12.02-2.68c1.57-0.04,2.35-0.64,2.62-2.31c0.46-2.82,2.01-3.91,4.67-3.68c2.85,0.25,3.83,1.44,4.02,4.57
			c0.04,0.63,0.61,1.51,1.17,1.74c0.79,0.34,1.81,0.13,2.7,0.28c0.88,0.14,1.73,0.44,2.82,0.74c-0.07-2.55-0.28-5.07,2.57-5.97
			c2.56-0.81,4.7,0.08,6.17,2.01c1.17-1.19,2.09-2.61,3.39-3.27c0.92-0.46,2.47-0.14,3.57,0.28c1.64,0.63,2.5,2.01,1.8,3.81
			c-0.58,1.48-1.67,2.19-2.67,1.79c-0.11-1.48-0.19-2.49-0.26-3.5c-0.9,0.09-2.11-0.15-2.63,0.34c-1.13,1.07-0.71,2.26,0.28,3.48
			c1.49,1.84,3.42,2.1,5.4,1.65c3.71-0.84,7.37-1.89,11.03-2.95c4.05-1.17,8-3.01,12.12-3.5c4.76-0.57,9.56-0.6,14.49,0.72
			c4.87,1.3,7.24,4.43,9.23,8.23c2.15,4.11,2.22,8.43-0.09,12.62c-0.11,0.21-0.14,0.46-0.19,0.7c-0.01,0.06,0.05,0.14,0.12,0.29
			c0.18,0.04,0.45,0.19,0.63,0.13c3.83-1.39,4-1.33,5.83,2.43c0.18,0.37,0.27,0.84,0.56,1.1c0.31,0.28,0.79,0.38,1.19,0.55
			c0.11-0.43,0.45-1.01,0.29-1.28c-0.65-1.04-1.36-2.09-2.23-2.95c-1.66-1.66-2.78-3.65-1.73-5.78c0.72-1.47,2.44-2.44,3.87-3.79
			c0.37-1.28,0.96-3.03,1.37-4.82c0.14-0.63,0.06-1.75-0.32-1.97c-1-0.58-2.21-1.03-3.35-1.05c-0.57-0.01-1.7,1.08-1.65,1.57
			c0.29,2.48,1.78,0.4,2.88,0.55c0.56,1.91-0.87,2.77-2.12,2.65c-1.1-0.11-2.92-1.35-2.94-2.13c-0.04-1.47,0.59-3.46,1.67-4.34
			c1.36-1.1,3.42-1.23,4.93,0.51c0.48,0.55,1.11,0.97,2.13,1.84c0.59-1.35,1.03-2.49,1.57-3.59c0.36-0.73,0.86-1.39,1.3-2.08
			C284.48,2.59,284.7,3.31,285,4c0.67,1.55,1.36,3.1,2.06,4.66c1.57-1.38,2.53-2.43,3.68-3.2c2.98-2.01,7.05-0.32,7.09,2.99
			c0.01,0.87-0.78,2.11-1.56,2.51c-0.77,0.39-2.07,0.15-2.96-0.23c-0.57-0.24-0.81-1.24-1.2-1.9c0.17-0.14,0.35-0.28,0.52-0.41
			c0.73,0.24,1.46,0.47,2.21,0.71c0.37-1.84-0.53-2.94-2.03-2.36c-1.26,0.49-2.36,1.48-3.41,2.39c-1.52,1.33,0.08,2.27,0.5,3.42
			c0.4,1.1,0.39,2.36,0.92,3.07c1.35,1.16,3.27,2.09,3.89,3.56c0.68,1.61,0.15,3.73,0.15,5.86c2.77-0.43,4.74,0.84,5.14,4.12
			c0.04,0.29,0.27,0.67,0.53,0.8c3.51,1.86,3.06,4.88,2.17,8.73c3.4-3.36,6.59-4.51,10.52-2.06c3.62,2.26,5.27,5.28,4.83,9.49
			c2.87-0.73,5.44-4.33,5.45-7.53c0-1.65,0.27-3.46-0.29-4.93c-0.66-1.74-1.8-3.53-3.23-4.68c-1.46-1.17-3.42-0.4-4.26,1.18
			c-0.45,0.84,0.06,2.3,0.45,3.37c0.07,0.19,1.68-0.08,2.53-0.3c0.42-0.11,0.75-0.57,1.16-0.9c0.7,1.99-1.15,4.27-3.25,4.23
			c-1.76-0.04-3.91-1.99-4.1-3.73c-0.27-2.48,1.03-4.96,2.99-5.36c1.82-0.36,3.68-0.49,5.55-0.72c-0.21-3.05-4.62-8.66-7.38-9.41
			c0,1.55,0.21,3.2-0.04,4.77c-0.57,3.5-3.89,3.93-6.4,4.59c-2.5,0.66-5.08-0.31-6.76-2.72c-5.58-7.98-1.76-19.01,7.74-21.5
			c8.49-2.23,16.55-0.6,24.29,3.47c3.11,1.64,6.64,2.51,9.99,3.68c0.53,0.18,1.26,0.28,1.71,0.06c0.79-0.39,1.51-1,2.08-1.66
			c0.14-0.16-0.43-0.92-0.68-1.4c-0.66,0.45-1.32,0.9-2.51,1.7c-0.22-1.12-0.71-2.23-0.51-3.21c0.11-0.54,1.37-1.21,2.11-1.2
			c2.79,0.04,3.2,2.42,4.05,4.85c0.92-1,1.7-1.78,2.39-2.63c1.87-2.31,4.25-3.1,7.11-2.41c1.8,0.44,3.01,2.44,2.49,3.97
			c-0.68,2.02-2.27,2.61-4.66,1.64c0.19-0.27,0.34-0.52,0.52-0.75c0.5-0.64,1-1.27,1.5-1.9c-0.93-0.35-2.05-1.19-2.76-0.93
			c-1.49,0.55-2.83,1.6-4.12,2.58c-3.03,2.3-5.83,4.92-9.02,6.95c-3.65,2.32-8.67,1.56-12.06-1.26c-0.81-0.67-1.65-1.3-2.6-2.04
			c-0.4,0.49-0.7,0.76-0.88,1.1c-1.55,2.81-3.7,3.35-6.04,1.22c-3.83-3.48-7.28-2.97-11.9-0.64c-0.63,0.32-1.05,1.03-1.48,1.97
			c5.97-1.42,11.75-2.66,15.85,3.92c2.05-2.71,4.3-1.93,6.32-0.38c0.66,0.51,0.7,1.81,0.5,2.83c-0.85-0.71-1.71-1.42-2.56-2.14
			c0.12,1.2-0.07,2.53,0.41,3.56c2.09,4.53,2.15,9.34,1.62,14.05c-0.42,3.8-3.12,6.59-6.13,8.95c-2.17,1.7-4.45,2.76-7.3,2.53
			c-0.78-0.06-1.61,0.57-2.42,0.88c-0.01,0.28-0.02,0.56-0.02,0.85c1.1,0.22,2.22,0.68,3.31,0.62c7.07-0.38,11.92-4.27,14.58-11.26
			c2.11-5.55,2.17-11.11,0.33-16.74c-0.28-0.84-0.36-1.83-0.2-2.7c0.09-0.51,0.91-1.35,1.27-1.29c8.05,1.41,14.38-2.98,21.22-5.91
			c4.61-1.98,9.56-3.25,14.44-4.51c1.79-0.46,2.93-0.81,2.82-2.88c-0.11-2,0.81-3.02,2.97-3.06c2.26-0.05,3.98,0.58,3.87,3.04
			c-0.12,2.85,1.32,3.2,3.68,3.21c3,0.01,5.84,0.64,8.49,2.36c4.08,2.66,8.43,4.81,12.03,8.28c4.84,4.66,7.77,10.02,8.2,16.72
			c0.02,0.31,0.15,0.61,0.3,1.18c2.04-0.91,3.95-1.79,5.88-2.62c0.91-0.39,1.83-0.83,2.79-1.02c1.59-0.31,1.95-1.22,1.83-2.68
			c-0.14-1.82-0.77-3.77-2.67-3.46c-1.28,0.21-2.41,2.06-3.34,3.36c-0.38,0.52-0.06,1.54-0.06,2.41c-2.66-0.75-4.71-3.47-5.02-6.34
			c-0.28-2.63,1.08-4.49,4.85-6.43c-1.16-1.81-2.91-2.21-4.66-1.74c-5.62,1.53-12.53-1.89-12.94-9.08c-0.09-1.55-0.99-2.56-2.8-2.75
			c-0.14,0.47-0.16,0.9-0.38,1.19c-0.68,0.88-1.44,1.7-2.17,2.55c-0.99-0.87-2.34-1.57-2.88-2.67c-0.61-1.23-0.09-2.46,1.55-3.09
			c3.28-1.25,5.84-0.54,7.76,2.44c0.84-0.98,1.46-1.96,2.31-2.67c3.75-3.1,8.12-1.23,10.16,2.24c1.24,2.1-0.01,4-2.46,4.13
			c-0.51,0.03-1.03,0-1.65,0.37c3.14,1.78,7.49,0.77,9.76,4.61c0.31-2.42,1.26-4.02,4.06-4.28c-0.69-0.97-1.08-1.52-1.46-2.07
			c-0.08,0.22-0.16,0.45-0.24,0.67c-1-0.07-1.99-0.14-2.99-0.21c0.1-0.87-0.04-2.35,0.35-2.5c0.99-0.39,2.34-0.5,3.3-0.12
			c0.77,0.31,1.19,1.5,2.06,2.71c1.38-1.94,2.57-3.65,3.81-5.33c0.36-0.49,0.87-0.87,1.32-1.3c0.34,0.5,0.73,0.98,0.99,1.51
			c0.7,1.4,1.35,2.82,2.01,4.24c0.14-0.33,0.29-0.65,0.43-0.98c1.61-0.24,3.21-0.61,4.82-0.61c0.42,0,1.23,1.25,1.15,1.83
			c-0.11,0.75-0.92,1.41-1.43,2.11c-0.2-0.1-0.4-0.21-0.59-0.31c-0.12-0.66-0.24-1.33-0.36-1.99c-0.24-0.09-0.48-0.18-0.71-0.27
			c-0.57,1.1-1.15,2.2-1.5,2.87c1.29,1.82,2.32,3.27,3.29,4.64c1.72-0.68,3.8-1.34,5.7-2.35c0.76-0.4,1.36-1.53,1.55-2.42
			c0.22-1.04,0.24-1.73,1.61-1.49c0.98,0.17,2.02,0.01,3.03,0c-0.27-0.86-0.31-1.96-0.87-2.53c-1.01-1.02-2.5-1.81-3.73-0.48
			c-0.84,0.92-1.18,2.3-1.71,3.49c-0.24,0.55-0.38,1.13-0.57,1.7c-0.52-0.44-1.55-0.97-1.48-1.29c0.37-1.96,0.53-4.23,1.66-5.72
			c1.22-1.61,5.15-1.08,6.9,0.35c0.71,0.58,1.4,1.17,2.04,1.82c0.63,0.64,1.17,1.35,2.02,2.34c0.48-0.85,0.87-1.5,1.22-2.18
			c1.9-3.63,6.43-3.94,8.38-0.39c0.61,1.11,0.09,2.82,0.09,4.66c3.19-0.42,6.79-0.88,10.52-1.37c0.03-0.25,0.03-0.57,0.12-0.87
			c0.45-1.49,0.51-3.74,1.49-4.26c1.38-0.73,3.65-0.65,5.15-0.01c1.55,0.66,2.35,2.43,1.6,4.46c-0.15,0.41,0.57,1.55,1.1,1.73
			c8.41,2.82,16.87,5.5,25.29,8.31c3.27,1.09,6.35,1.09,9.38-0.65c0.33-0.19,0.76-0.2,1.38-0.35c-0.49,1.91-1.19,3.58-1.32,5.3
			c-0.94,12.24,4.84,20.85,15.03,26.97c2.38,1.43,4.75,2.33,7.31,0.15c0.61-0.52,1.83-0.32,2.77-0.46c1.36-0.2,2.87-0.13,4.03-0.73
			c0.7-0.36,1.07-1.77,1.1-2.73c0.01-0.35-1.37-0.83-2.17-1.09c-0.52-0.16-1.13-0.03-1.7-0.03c1.01-2.41,1.55-2.53,3.52-1.2
			c0.94,0.64,2.1,0.96,3.61,1.62c-1.89,2.12-3.79,4.25-5.69,6.38c-2.8,3.13-6.4,2.2-9.46,1.19c-13.83-4.55-19.37-15.1-20.2-28.79
			c-0.05-0.88,0.16-1.78,0.28-2.98c-1.35,0.1-2.68,0.5-3.86,0.23c-4.19-0.96-8.34-2.11-12.48-3.26c-6.22-1.73-12.35-3.92-18.66-5.21
			c-8.19-1.67-16.28-0.41-23.83,3.14c-2.57,1.21-4.87,3.17-6.93,5.16c-1.12,1.08-1.44,2.97-2.2,4.46c-0.28,0.55-0.78,0.98-1.53,1.3
			c0.15-0.63,0.3-1.25,0.45-1.88c-0.09-0.06-0.19-0.11-0.28-0.17c-0.64,0.82-1.47,1.57-1.82,2.5c-0.18,0.49,0.4,1.36,0.82,1.93
			c0.41,0.57,1.57,1.18,1.47,1.45c-0.25,0.71-0.98,1.26-1.56,1.84c-0.36,0.36-1.06,0.63-1.1,0.99c-0.05,0.42,0.35,1.05,0.74,1.34
			c2.57,1.96,3.8,1.44,5.36-1.34c1.01-1.81,2.47-3.66,4.2-4.72c6.78-4.15,14.12-4.24,21.6-2.13c0.1,0.03,0.15,0.26,0.32,0.57
			c-0.5,0.11-0.95,0.31-1.38,0.27c-2.86-0.25-5.73-0.86-8.58-0.75c-5.19,0.19-12.6,1.97-14.63,7.51c-0.21,0.58-0.07,1.3-0.09,1.95
			c0.52-0.29,1.23-0.44,1.55-0.88c5.21-7.28,19.29-7.95,26.38-1.12c4.05,3.9,6.59,8.3,7.66,13.76c1.03,5.2-1.03,9.19-4.42,12.8
			c-0.68,0.72-1.31,1.49-1.7,2.49c2.59-0.78,4.34-2.6,5.44-4.85c1.4-2.89,3.8-4.56,6.46-5.97c1.99-1.06,3.89-0.72,5.43,0.98
			c1.14,1.26,2.3,1.78,4.16,1.44c3.68-0.68,7.94,1.81,9.73,5.14c1.25,2.32,2.57,4.61,3.98,6.83c1.9,2.97,4.94,3.88,8.2,3.72
			c1.03-0.05,2.31-1.22,2.88-2.21c0.34-0.6-0.21-2.13-0.85-2.73c-0.55-0.52-1.8-0.4-2.72-0.33c-0.16,0.01-0.24,1.16-0.35,1.79
			c0.83-0.01,1.66-0.03,2.49-0.04c0.16,0,0.32-0.02,0.48-0.03c-0.05,1.44-0.77,2.39-2.24,2.29c-0.85-0.06-2.3-0.92-2.33-1.47
			c-0.07-1.35,0.11-3.4,0.97-3.94c1.04-0.66,3.05-0.44,4.34,0.09c1.88,0.78,2.81,3.65,2.2,5.29c-1.02,2.74-3.09,3.93-5.76,3.67
			c-4.52-0.44-8.14-2.17-10.28-7.21c-0.9,1.64-1.43,2.6-1.95,3.56c-2.51,4.76-8.98,5.43-12.31,1.25c-1.62-2.04-0.41-3.77,0.78-5.37
			c0.83-1.12,1.76-2.51,3.64-1.32c-0.19,0.33-0.25,0.64-0.42,0.71c-2.06,0.89-2.68,2.54-1.98,4.47c0.59,1.63,2.05,2.39,3.84,2.02
			c2.06-0.42,3.86-1.17,4-3.7c0.13-2.42-0.52-4.66-2.71-5.74c-2.79-1.37-5.87-2.15-8.73,0.02c-2.44,1.86-4.7,3.95-7.19,5.75
			c-2.8,2.03-5.57,4.3-8.72,5.58c-2,0.81-4.75,0.38-7-0.17c-3.79-0.93-6.9-3.06-7.58-7.26c-0.59-3.66,0.02-7.15,2.98-9.77
			c3.35-2.96,7.4-2.52,10.11,1.01c0.29,0.38,0.64,0.71,1.59,0.97c0-3.16,0-6.31,0-9.65c-0.85,0.09-1.49,0.16-2.13,0.22
			c-1.76,0.17-2.8-0.53-3.23-2.32c-0.51-2.08-0.97-4.24-1.91-6.14c-3.11-6.25-10.61-10.13-17.67-5.21c-0.38,0.27-0.65,0.7-1,1.09
			c2.11,0.12,4.15-0.08,6.01,0.4c6.79,1.76,10.92,11.87,6.37,17.55c-2.28,2.85-5.23,4.81-9.08,5c-2.48,0.12-4.71,0.82-6.49,2.69
			c-1.61,1.68-1.61,3.62-0.86,5.54c0.79,2.02,2.16,3.66,4.63,3.47c2.11-0.17,4.28-0.64,4.99-3c0.25-0.83-0.08-2.55-0.56-2.72
			c-1.26-0.45-2.76-0.33-4.15-0.26c-0.11,0.01-0.15,1.38-0.22,2.12c0.64-0.02,1.3,0.06,1.9-0.1c0.41-0.11,0.74-0.54,1.1-0.83
			c0.24,0.12,0.48,0.25,0.72,0.37c-0.38,0.78-0.58,1.79-1.19,2.28c-1.41,1.13-3.25,1.07-4.26-0.28c-0.66-0.89-0.82-2.78-0.31-3.78
			c1.24-2.44,4.57-3.05,6.73-1.6c2.28,1.53,2.82,5.53,1.18,7.81c-2.84,3.93-9.57,4.65-12.23,3.34c-4.15-2.05-7.25-7.03-5.64-11.75
			c0.68-1.99-0.55-1.97-1.83-2.58c-1.36-0.66-2.75-1.9-3.33-3.23c-0.32-0.74,0.74-2.45,1.61-3.25c1.55-1.41,4.84-0.03,5.18,1.99
			c0.23,1.37-1.01,2.18-2.92,1.77c0.24-0.67,0.48-1.32,0.71-1.97c-0.12-0.19-0.24-0.38-0.36-0.57c-0.75,0.38-2.05,0.68-2.12,1.15
			c-0.1,0.77,0.39,2.06,1.01,2.38c0.94,0.49,2.47,0.8,3.29,0.35c2.21-1.21,4.17-2.86,5.73-3.97c-2.11-1.1-4.84-1.98-6.82-3.71
			c-2.02-1.76-3.31-4.35-4.99-6.68c0.1-0.8,0.24-1.88,0.38-2.95c-0.18-0.21-0.36-0.43-0.54-0.64c-2.13,2.91-5.07,3.18-8.18,3.47
			c-1.98,0.18-1.47,2.49-1.09,3.71c0.37,1.2,1.4,2.51,3.26,1.72c1.13-0.48,2.36-0.74,3.54-1.09c-0.35,1.21-0.82,2.39-1.01,3.63
			c-0.11,0.7,0.16,1.49,0.41,2.19c0.52,1.42,1.8,2.89,1.6,4.16c-0.41,2.58,0.93,4.02,2.38,5.61c0.48,0.52,0.9,1.09,1.34,1.64
			c-0.09,0.24-0.18,0.49-0.27,0.73c-0.95-0.11-1.95-0.08-2.85-0.36c-1.48-0.45-2.23-0.2-2.72,1.44c-0.98,3.29-2.47,4.08-5.83,3.15
			c-1.46-0.41-2.03-0.09-2.17,1.33c-0.05,0.49-0.11,1.05-0.39,1.42c-0.35,0.48-0.93,1.13-1.39,1.11c-0.42-0.02-1.11-0.79-1.17-1.28
			c-0.24-2.22-1.23-3.09-3.59-3.08c-1.06,0-2.69-1.13-3.07-2.12c-0.76-1.98-1.94-2.4-3.79-2.28c-0.86,0.06-1.73-0.17-3.31-0.35
			c1.15-1.2,1.81-1.96,2.54-2.65c1.16-1.11,1.74-2.17,1.06-3.93c-0.74-1.89-0.61-3.8,1.34-5.31c0.61-0.47,0.73-1.86,0.68-2.8
			c-0.08-1.26-0.55-2.5-0.85-3.75c0.2-0.18,0.4-0.35,0.6-0.53c1.54,0.9,3.08,1.81,4.61,2.71c-0.1,0.23-0.21,0.45-0.31,0.68
			c-0.76-0.08-1.52-0.15-2.28-0.23c-0.15,0.16-0.29,0.32-0.44,0.48c0.67,0.64,1.28,1.41,2.07,1.84c0.18,0.1,0.97-1.01,1.53-1.5
			c0.74-0.65,1.72-1.12,2.24-1.9c0.67-1,1.13-2.21,1.31-3.39c0.04-0.23-1.62-1.03-2.5-1.03c-4.6-0.02-7.05-0.86-10.6-4.08
			c-0.41,1.08-0.88,2.01-1.12,3c-1.56,6.29-6.09,9.73-12.51,9.44c-3.06-0.14-6.66-3.02-7.76-6.21c-0.92-2.68,0.3-6.82,2.61-8.83
			c0.65-0.57,1.28-1.15,2.38-2.14c-3.27-0.32-5.21,1.02-6.38,2.93c-3.39,5.5,0.22,13.75,5.42,15.69c2,0.75,4.19,0.96,6.24,1.6
			c1.05,0.33,2.1,0.95,2.93,1.68c1.47,1.32,3.03,1.91,5.01,1.53c1.71-0.33,2.26-1.46,1.86-2.89c-0.18-0.63-1.22-1.01-1.88-1.51
			c-0.2,0.72-0.45,1.43-0.59,2.16c-0.05,0.26,0.19,0.58,0.29,0.87c-0.15,0.2-0.3,0.4-0.46,0.6c-0.74-0.5-2.08-0.98-2.11-1.52
			c-0.07-1.25,0.14-2.88,0.93-3.68c0.66-0.67,2.59-0.9,3.47-0.43c3.06,1.65,2.84,6.09-0.24,7.75c-0.72,0.39-1.52,0.61-2.45,0.97
			c0.17,0.97,0.32,1.92,0.51,2.87c0.78,3.88-1.3,8.49-4.47,9.86c-3.86,1.66-8.38,0.47-10.97-2.88c-2.04-2.65-1.29-6.32,1.61-7.93
			c1.63-0.91,3.82-0.27,5,1.51c1.13,1.7,0.81,3.44-0.52,4.75c-0.44,0.44-1.91,0.28-2.64-0.1c-1.25-0.65-1.77-1.83-0.82-3.66
			c0.66,0.77,1.02,1.42,1.57,1.76c0.39,0.24,1.04,0.08,1.57,0.1c0.01-0.53,0.21-1.4-0.01-1.52c-1.07-0.58-2.34-1.44-3.37-1.26
			c-0.7,0.13-1.63,1.84-1.57,2.78c0.13,1.93,1.34,3.83,3.48,3.34c1.74-0.39,3.84-1.57,4.68-3.03c1.11-1.92-0.41-3.92-2.19-4.98
			c-1.51-0.89-3.31-1.43-5.05-1.77c-8.17-1.62-13.82-8.94-12.61-17.27c0.98-6.75,6.12-10.27,12.94-9.56
			c0.54,0.06,1.09,0.01,1.72,0.01c-1.71-2.85-4.68-2.94-11.84-1.05c-0.74-0.27-1.63-0.95-2.2-0.75c-4.08,1.46-7.64,3.73-9.67,7.71
			c-0.78,1.53-1.06,3.31-1.57,4.97c0.22,0.08,0.45,0.16,0.67,0.23c0.41-0.75,0.82-1.51,1.23-2.26c2.43,2.23,4.01,1.71,5.07-1.58
			c0.58-1.8,1.16-3.61,1.95-5.32c0.36-0.76,1.26-1.28,1.97-1.96c-1.21,3.82-2.24,7.41-3.5,10.92c-0.9,2.48-3.15,2.29-5.22,2.03
			c-1.49,3.43-1.09,10.49,0.85,12.77c0.26-0.57,0.53-1.03,0.68-1.51c0.67-2.21,2.14-3.91,4.39-3.75c1.7,0.12,3.71,1.08,4.89,2.32
			c2.3,2.43,2.28,5.72,1.21,8.64c-1.2,3.3-3.61,5.43-7.38,6.22c-4.96,1.03-8.19-1.47-11.53-4.39c-2.73-2.38-5.56-4.74-8.66-6.57
			c-3.36-1.98-7.03-1.62-10.44,0.34c-2.11,1.21-3.23,3.24-2.43,5.44c0.62,1.7,2.04,3.41,3.57,4.36c0.75,0.47,3.13-0.39,3.77-1.33
			c0.7-1.04,0.41-2.87,0.19-4.3c-0.04-0.28-1.74-0.3-2.67-0.44c0.2,0.79,0.36,1.6,0.62,2.37c0.09,0.26,0.45,0.43,0.64,1.24
			c-0.86,0-1.92,0.3-2.53-0.08c-0.62-0.39-1.27-1.61-1.08-2.22c0.35-1.16,1.05-2.56,2.04-3.12c2.13-1.22,4.82,0.41,5.5,3
			c0.66,2.52-0.48,6-2.33,7.12c-2.07,1.25-5.15,0.78-7.26-1.3c-0.99-0.97-1.89-2.11-2.52-3.33c-0.58-1.14-0.73-2.49-1.26-4.45
			c-1.11,1.77-1.82,3.09-2.72,4.27c-2.95,3.9-10.3,7.33-14.92,4.47c-1.23-0.76-2.7-2.55-2.58-3.72c0.18-1.75,1.4-3.65,2.73-4.91
			c0.57-0.54,2.71,0.1,3.8,0.76c0.61,0.37,1.04,2.2,0.65,2.78c-0.59,0.88-1.96,1.24-2.99,1.83c-0.15-0.22-0.31-0.45-0.46-0.67
			c0.19-0.3,0.38-0.6,0.56-0.9c0.28-0.49,0.55-0.99,0.82-1.49c-0.42-0.21-0.95-0.69-1.24-0.57c-0.54,0.21-1.2,0.69-1.35,1.2
			c-0.74,2.41,1.39,4.79,3.9,4.45c6.39-0.86,10.34-4.73,13.18-10.22c1.35-2.61,2.96-5.21,4.96-7.34c2.83-3.01,7.62-3.28,11.23-1.19
			c0.42,0.24,0.83,0.5,1.6,0.98c0.53-1.14,1.42-2.2,1.3-3.12c-0.08-0.59-1.61-1.11-2.57-1.43c-5.99-1.99-10.33,0.82-14.47,4.75
			c-3.82,3.63-7.72,7.57-13.22,8.36c-5.64,0.81-11.59,1.64-16.83-1.33c-3.32-1.88-6.28-4.56-8.94-7.32c-1.37-1.42-1.72-3.81-2.63-6
			c-3.22,1.82-6.42,3.63-10.26,1.51c0.83-0.15,1.66-0.35,2.5-0.45c0.65-0.08,1.44,0.18,1.96-0.1c1.18-0.63,2.23-1.5,3.34-2.28
			c-0.89-0.77-1.66-1.78-2.68-2.28c-7.49-3.71-15.02-3.62-22.48,0.08c-0.67,0.33-1.15,1.05-1.71,1.58c0.5,0.51,0.93,1.32,1.53,1.48
			c2.44,0.67,4.92,1.23,7.41,1.61c0.5,0.08,1.15-0.82,1.73-1.27c-0.58-0.47-1.1-1.16-1.77-1.37c-0.86-0.28-1.85-0.19-2.96-0.27
			c2.36-3.33,11.88-3.49,14.6-0.48c-1.32,0.7-3.24,1.1-3.78,2.18c-0.58,1.18,0.11,2.99,0.27,4.73c0.34-0.07,0.75-0.07,1.05-0.24
			c4.24-2.54,10.34,1.99,10.95,6.2c0.19,1.31,0.18,2.76,0.78,3.88c0.68,1.29,1.78,2.51,3,3.31c0.53,0.36,1.8-0.38,2.74-0.62
			c-0.32-0.89-0.58-1.81-0.98-2.66c-0.15-0.31-0.63-0.47-0.95-0.7c0.04-0.25,0.09-0.51,0.13-0.76c1.04,0.15,2.37-0.05,3.08,0.51
			c3.07,2.44,3.79,6.01,0.82,9.27c-3.94,4.32-9.12,3.57-12.81-1.45c-1-1.36-2.73-2.24-4.24-3.16c-0.2-0.12-1.64,0.99-1.57,1.36
			c0.56,2.94-2.08,3.95-3.35,5.74c-0.2,0.28-1.32,0.27-1.73-0.02c-0.87-0.59-1.73-1.35-2.28-2.24c-0.77-1.25-1.05-2.83-1.92-3.98
			c-0.8-1.05-2.11-1.7-3.76-2.96c-1.05,0.92-2.64,1.9-3.69,3.29c-3.25,4.31-6.62,3.67-11.1,1.84c-2.58-1.06-2.99-5.3-1.09-7.34
			c1.14-1.22,2.33-1.4,3.75-0.32c-0.16,0.29-0.23,0.54-0.39,0.68c-0.64,0.55-1.31,1.07-1.97,1.61c0.39,0.36,0.86,1.07,1.17,1.01
			c1.04-0.21,2.39-0.42,2.95-1.15c0.93-1.21,1.34-2.83,1.98-4.27c0.51-1.13,0.94-2.31,1.58-3.38c2.01-3.37,4.79-5.22,8.92-4.2
			c0.39,0.1,0.83,0.09,1.23,0.04c0.21-0.02,0.4-0.22,1.32-0.79c-1.67-0.42-2.75-0.72-3.85-0.97c-2.39-0.55-4.89-0.81-7.16-1.69
			c-2.02-0.78-2.97-0.73-3.52,1.57c-1.8,7.51-7.18,11.48-14.41,12.06c-5.13,0.41-10.67,0.71-15.45-2.42
			c-2.04-1.34-4.18-2.53-6.61-3.99c1.08,2.07,1.89,4.07,3.08,5.81c2.49,3.66,5.32,7.07,10.15,7.64c1.05,0.12,2.37-0.22,3.2-0.83
			c0.49-0.36,0.25-1.69,0.33-2.58c-0.75,0.15-1.51,0.27-2.24,0.48c-0.27,0.08-0.48,0.38-1.38,0.4c0.2-0.81,0.15-1.95,0.67-2.35
			c0.74-0.58,2.13-1.1,2.82-0.77c1.06,0.5,2.25,1.63,2.54,2.71c0.88,3.38-1.43,5.74-5.19,5.75c-2.79,0.01-4.92-1.31-6.84-3.14
			c-1.18-1.12-2.35-2.25-3.85-3.68c-0.48,1.21-1.01,1.93-1.03,2.67c-0.08,3.51-2.85,3.8-5.27,4.61c-2.31,0.77-3.85-0.42-5.26-1.91
			c-2.04-2.15-1.11-7.1,1.64-8.1c0.8-0.29,2.54,0.02,2.8,0.55c0.63,1.3,0.83,2.9,0.79,4.37c-0.01,0.42-1.44,0.8-2.22,1.2
			c-0.11-0.18-0.23-0.36-0.34-0.54c0.12-0.27,0.25-0.54,0.36-0.82c0.25-0.61,0.61-1.21,0.65-1.84c0.01-0.17-1.06-0.69-1.42-0.54
			c-0.59,0.25-1.44,0.95-1.41,1.4c0.07,1.15,0.27,2.58,1,3.32c0.63,0.64,2.18,0.84,3.15,0.59c3.42-0.89,4.76-4.47,2.83-7.4
			c-1.41-2.14-3-4.16-4.58-6.17c-0.33-0.42-0.96-0.67-1.51-0.82c-3.69-1.04-7.35-2.4-10.78,0.9c-1.38,1.32-3.23,2.14-5.27,2.78
			c1.05-1.53,2.19-3,3.1-4.6c0.35-0.61,0.18-1.52,0.25-2.29c-0.79-0.05-1.66-0.33-2.36-0.1c-1,0.33-2.11,0.83-2.76,1.6
			c-2.11,2.48-4.03,5.11-5.57,8.05c2.01-2.35,4.02-4.7,6.03-7.05c0.16,0.16,0.33,0.33,0.49,0.49c-2.18,3.92-4.09,7.57-9.61,8.63
			c-3.2,0.62-5.27,0.15-7.65-1.36c-2.4-1.52-2.37-5.24,0.16-6.52c0.63-0.32,1.55-0.05,2.34-0.05c0.03,0.29,0.06,0.57,0.09,0.86
			c-0.39,0.24-0.89,0.4-1.14,0.75c-0.5,0.7-0.86,1.5-1.28,2.26c1.03,0.22,2.24,0.9,3.05,0.58c2.12-0.82,2.5-2.9,1.31-5.26
			c-0.86-1.71-3.08-2.49-4.92-1.74c-2.87,1.17-4.61,5.98-3.24,8.96c2.78,6.03,8.51,6.7,13.97,4.98c2.76-0.87,5.06-3.12,7.67-4.56
			c3.61-1.99,7.23-3.99,11.01-5.6c1.51-0.64,3.45-0.25,5.2-0.34c0.04,0.33,0.09,0.66,0.13,1c-0.78,0.15-1.55,0.4-2.34,0.45
			c-5.07,0.3-8.64,3.3-12.38,6.29c-2.8,2.24-5.9,4.49-9.25,5.57c-6.11,1.97-14.27,0.35-17.1-8.57c-1.42-4.47,2.83-10.97,7.5-11.29
			c2.37-0.16,4.24,0.62,5.19,3c0.27,0.67,0.71,1.27,1.28,2.26c2.01-3.39-0.62-5.9-0.68-8.64c-5.19,0.04-6.81-1.53-6.85-6.48
			c-0.03-4.68-5.01-9.82-9.79-9.88c-2.24-0.03-4.49,0.43-6.74,0.67c-0.01,0.29-0.02,0.59-0.02,0.88c0.72,0.18,1.47,0.3,2.17,0.54
			c1.83,0.65,3.66,1.32,5.47,2.04c2.82,1.13,4.25,3.61,5.68,6.03c0.43,0.72,0.35,1.73,0.5,2.61c-0.77-0.28-1.53-0.57-2.36-0.87
			c-0.22,1.32-0.37,2.86-0.77,4.34c-0.4,1.5-1.06,2.94-1.67,4.58c0.73-0.13,1.43-0.25,2.59-0.45c-1.27,3.64-2.87,6.55-6.41,7.68
			c-2.6,0.83-5.32,1.28-8,1.8c-2.67,0.52-5.12,1.51-5.92,4.28c-0.7,2.42,0.41,4.55,2.35,6.16c2.02,1.68,3.96,0.81,5.71-0.44
			c1.84-1.32,1.89-3.33,1.06-5.15c-0.34-0.74-1.74-1.49-2.56-1.4c-0.77,0.09-1.58,1.2-2.04,2.04c-0.2,0.37,0.45,1.19,0.71,1.8
			c0.41-0.49,0.86-0.95,1.2-1.49c0.16-0.24,0.1-0.63,0.13-0.94c0.23-0.09,0.46-0.17,0.69-0.26c0.32,0.89,1.16,2.17,0.85,2.58
			c-0.75,1-2.03,2.14-3.12,2.17c-0.82,0.02-2.34-1.55-2.4-2.49c-0.12-1.89,0.24-3.79,2.59-4.82c2.45-1.07,4.03-0.33,5.35,1.54
			c1.56,2.22,1.55,4.8,0.6,7.13c-0.98,2.4-3.25,3.11-5.81,2.84c-1.94-0.21-4.16,0.17-5.77-0.65c-4.74-2.41-6.47-8.21-4.4-13.24
			c0.21-0.51,0.29-1.08,0.29-1.08c-1.39-1.73-2.8-2.96-3.51-4.5c-0.75-1.63-0.54-3.48,1.5-4.4c1.71-0.77,3.52-0.01,4.19,1.86
			c0.22,0.63-0.09,1.45-0.15,2.18c-0.23,0.01-0.45,0.01-0.68,0.02c-0.51-0.69-1.02-1.38-1.6-2.18c-1.58,0.96-1.74,2.45-0.82,3.39
			c0.81,0.82,2.86,1.62,3.52,1.18c4-2.67,8.81-2.33,13.05-3.88c3.34-1.22,5.95-3.42,6.43-7.23c0.52-4.12,0.13-8.02-3.76-10.59
			c-1.96-1.29-4.06-1.44-6.23-0.06c0.5,0.09,1,0.2,1.51,0.26c2.36,0.24,4.02,1.42,4.91,3.62c1.7,4.17,0.39,8.64-3.35,11.46
			c-3.13,2.36-8.61,2.05-11.88-0.29c-3.49-2.49-5.96-5.47-6.14-9.94c-2.07,1.21-3.83,2.35-5.7,3.3c-0.77,0.39-1.8,0.25-2.64,0.55
			c-0.86,0.31-1.7,0.77-2.37,1.37c-0.17,0.16,0.2,1.4,0.59,1.58c0.85,0.4,1.93,0.74,2.8,0.55c1.31-0.29,2.52-1.06,4.17-1.8
			c-0.24,0.95-0.38,1.46-0.49,1.97c-0.43,1.98-1.19,3.9,0.44,5.84c0.61,0.73,0.89,2.1,0.69,3.05c-0.47,2.25,0.68,3.54,2.16,4.83
			c0.5,0.44,0.81,1.1,1.2,1.66c-0.69,0.37-1.37,1.02-2.08,1.06c-1.36,0.07-2.21,0.41-2.39,1.89c-0.3,2.56-2.28,3.3-4.33,3.09
			c-2.14-0.22-3.01,0.55-3.65,2.39c-0.31,0.89-1.22,1.57-1.85,2.34c-0.6-0.79-1.15-1.63-1.82-2.37c-0.63-0.69-1.43-1.86-2.07-1.81
			c-3.56,0.27-5.7-0.94-5.55-4.87c-1.83,0-3.28,0-5.24,0c1.34-1.86,2.87-3.22,3.35-4.89c0.47-1.62-0.29-3.56-0.19-5.34
			c0.04-0.79,0.68-1.8,1.36-2.25c1.76-1.17,2-2.43,0.99-4.2c-0.32-0.56-0.25-1.34-0.43-2.47c1.67,0.74,2.82,1.38,4.05,1.76
			c0.69,0.21,1.7,0.28,2.24-0.08c0.71-0.46,1.11-1.41,1.64-2.14c-0.77-0.3-1.55-0.87-2.32-0.86c-3.95,0.05-7.25-1.33-10.15-4.58
			c-0.25,1.07-0.42,1.67-0.53,2.28c-1.22,6.59-9.94,12.81-16.46,9.68c-2.76-1.33-4.93-4.42-4.71-7.26c0.31-3.9,2.62-7.21,5.72-7.92
			c0.83-0.19,1.78,0.08,2.66,0.14c-0.19-2.17-0.89-2.84-2.92-2.76c-6.36,0.27-9.99,3.69-9.57,9.91c0.27,4.02,2.74,7.15,6.45,9.1
			c0.66,0.34,1.29,0.75,2.49,1.45c-5.02,0.03-5.79-0.7-10.96-9.55c-1.5,5.77,2.33,10.94,8.3,11.51c4.67,0.44,9.16,1.56,11.17,6.47
			c0.65,1.57,0.57,3.44,0.77,4.85c1.49-1.25,1.98-4.21-0.16-7.2c-1.54-2.15-4.12-3.55-6.16-5.23c0.76-0.66,2.28-0.46,4.63,0.39
			c1.79,0.64,3.76,0.91,5.68,1.04c0.6,0.04,1.49-0.79,1.84-1.44c0.26-0.48-0.15-1.32-0.26-1.99c-0.6,0.2-1.25,0.33-1.78,0.64
			c-0.37,0.21-0.58,0.69-0.87,1.05c-0.25-0.09-0.5-0.18-0.76-0.27c0.34-1.02,0.39-2.49,1.1-2.93c0.87-0.55,2.67-0.71,3.36-0.16
			c0.79,0.63,1.48,2.71,1.04,3.3c-0.99,1.34-2.66,2.21-4.14,3.13c-0.49,0.3-1.25,0.15-1.73,0.19c0.64,2.26,1.46,4.33,1.79,6.47
			c0.57,3.66-1.87,6.84-5.91,8.13c-2.97,0.94-7.51-0.71-9.03-3.28c-1.4-2.37,0.12-6.21,2.76-6.95c1.56-0.44,3.41,0.91,4.03,2.93
			c0.51,1.64-0.38,2.57-1.76,3.05c-0.55,0.19-1.28-0.14-1.6-0.18c0.53-1.37,0.91-2.35,1.29-3.32c-0.79-0.26-2.15-0.88-2.26-0.71
			c-0.61,0.95-1.41,2.19-1.23,3.16c0.42,2.21,3.36,3.51,5.38,2.71c2.22-0.88,3.51-3.64,2.66-5.74c-1.13-2.79-3.53-3.7-6.24-4.32
			c-5.45-1.25-10.89-2.77-13.76-8.14c-1.6-2.99-1.71-6.36-0.35-9.58c2.26-5.36,5.74-9.41,12.48-10.45c-4.04-1.64-7.01,0.03-9.97,1.3
			c-3.35,1.44-5.17,3.88-4.96,7.77c0.15,2.82-1.5,4.45-4.21,4.81c-0.33,0.04-0.7-0.02-0.98,0.12c-2.93,1.44-4.02,9.6-1.54,11.98
			c0.24-0.19,0.52-0.36,0.72-0.6c4.18-4.85,8.46-4.74,12.36,0.34c2.27,2.96,2.44,7.33,0.03,10.38c-1.51,1.91-3.42,3.57-5.35,5.08
			c-0.81,0.64-2.15,0.89-3.23,0.87c-2.04-0.04-4.08-0.35-6.1-0.64c-3.28-0.48-4.88-3-6.82-5.32c-4.26-5.07-9.37-9.15-16.03-10.57
			c-4.44-0.94-8.66,4.69-7.26,8.6c0.81,2.24,3.93,4.3,6.28,3.87c2.2-0.41,3.46-2.79,2.29-4.69c-0.35-0.57-1.43-0.69-2.18-1.02
			c-0.25,0.71-0.69,1.43-0.68,2.14c0.01,0.78,0.43,1.56,0.68,2.33c-0.33,0.17-0.66,0.35-0.99,0.52c-0.59-0.97-1.71-1.98-1.65-2.91
			c0.09-1.29,0.84-2.74,1.77-3.67c0.4-0.4,2.16,0.07,2.93,0.64c1.73,1.29,3.43,2.78,2.31,5.4c-0.88,2.06-2.26,3.56-4.58,3.68
			c-2.75,0.14-5.1-0.86-6.55-3.31c-0.74-1.26-1.21-2.67-2.03-4.53c-0.53,0.91-0.98,1.49-1.22,2.14c-2.85,7.8-13.81,8.78-18.21,4.07
			c-2.84-3.04-2.36-8.72,1.22-10.89c0.2-0.12,0.36-0.33,0.94-0.87c-11.5,1.61-21.62,0.82-26.26-11.59c-2.47,0.98-2.77,1.8-1.11,3.36
			c2.11,1.98,2.69,4.33,2.69,7.15c0,3.13,0.37,6.28,3.2,8.48c1.59,1.24,3.33,1.72,5.08,0.84c0.64-0.32,1.12-1.62,1.09-2.46
			c-0.06-2.11-1.52-3.18-3.49-3.62l0.06,0.06c1.49-1.66,2.95-1.22,4.2,0.23c2.91,3.38,2.53,8.42-0.78,11.42
			c-2.03,1.84-7.22,1.89-9.16-0.03c-1.17-1.15-2.04-2.63-3.28-3.68c-0.62-0.52-1.9-0.77-2.68-0.52c-2.64,0.82-4.37-0.31-5.77-2.26
			c-1.21-1.69-0.84-3.37,0.99-4.64c0.29,0.36,0.56,0.75,0.9,1.08c0.27,0.27,0.61,0.46,1.54,1.16c-0.53-5.04-4.41-9.48-0.42-13.79
			c-3.8-3.36-4.56-6.32-2.38-8.77c2.18-2.45,5.23-2.42,8.56,0.32c0.62-1.67,1.21-3.26,1.8-4.84c0.62-0.53,1.28-1.03,1.86-1.6
			c4-3.96,12.1-2.14,13.51,3.2c0.59,2.22,0.42,4.63,0.59,6.94c5.44-1,9.3-9.4,6.1-14.3c-0.78-1.19-1.55-1.8-2.94-0.46
			c-2.1,2.03-5.35,2.36-6.49,1.37c2.15-0.98,4.72-1.74,6.81-3.19c2.96-2.04-0.1-4.97,0.4-7.88c0.86,0.69,1.42,1.13,1.96,1.58
			c2.51,2.1,5.91,1.45,7.24-1.51c0.81-1.8,1.56-3.69,1.96-5.61c0.73-3.56,2.41-6.43,5.49-8.54c-0.72-0.59-1.36-1.13-2.02-1.68
			c-2.49,1.36-4.52,2.95-4.07,6.28c-0.84-0.32-1.4-0.6-1.99-0.76c-2.65-0.72-3.23-0.21-2.92,2.53c0.09,0.82,0.25,1.63,0.37,2.45
			c-0.23,0.02-0.45,0.04-0.68,0.06c-1.43-2.27-1.55-4.6,0.1-7.12c-0.57,0.1-1.16,0.21-1.29,0.52c-0.61,1.45-1.64,2.71-0.77,4.62
			c0.6,1.32,1.3,3.7-0.78,4.31c-2.15,0.63-1.35-1.87-2.01-2.89c-0.43-0.67-1.22-1.25-1.97-1.5c-0.29-0.1-0.96,0.81-1.38,1.32
			c-0.23,0.28-0.32,0.68-0.51,1.11c-0.36-0.2-0.61-0.28-0.75-0.44c-1.98-2.17-3.29-1.91-4.3,0.82c-0.18,0.47-0.61,0.93-1.04,1.22
			c-2.22,1.51-2.12,2.67,0.22,4.14c0.67,0.42,1.17,1.28,1.43,2.04c0.07,0.2-1.05,1.17-1.58,1.13c-0.71-0.05-1.37-0.73-2.04-1.16
			c-1.61-1.05-3.1-2.37-4.84-3.09c-1.4-0.58-3.82,1.43-4.05,2.93c-0.21,1.42,1.38,3.13,3.07,3.39c0.47,0.07,0.91,0.37,1.36,0.56
			c-0.11,0.29-0.22,0.57-0.33,0.86c-2.08-0.74-4.16-1.48-6.39-2.28c-0.2,2.64,1.13,2.81,2.8,2.97c2.83,0.28,5.63,0.83,8.44,1.27
			c-0.05,0.39-0.1,0.77-0.15,1.16c-1.83-0.16-3.66-0.5-5.48-0.43c-2.19,0.09-4.44,0.29-6.49,0.97c-0.72,0.24-0.99,2.02-1.27,3.14
			c-0.04,0.18,1.29,0.99,1.42,0.88c0.76-0.67,1.34-1.54,1.99-2.33c0.09-0.11,0.26-0.16,0.89-0.52
			C12.9,35.89,13.08,37.01,13.26,38.13z M16.66,37.95c1.12-0.12,2.24-0.24,3.45-0.37c-1.02,0.84-1.86,1.52-3.01,2.46
			c0.75,0.21,0.84,0.27,0.9,0.25c0.38-0.15,0.76-0.29,1.12-0.47c2.48-1.32,4.26-0.65,4.86,2.03c0.15,0.69-0.4,1.54-0.63,2.31
			c-0.4-0.56-0.72-1.23-1.23-1.66c-0.52-0.44-1.23-0.66-1.86-0.97c-0.17,1.12-0.65,2.32-0.4,3.33c0.18,0.7,1.47,1.72,2.07,1.61
			c1.34-0.25,2.88-0.84,3.77-1.81c1.35-1.46,1.62-3.42,0.46-5.29c-1.78-2.85-5.52-4.99-9.45-1.37c-2.68,1.43-3.72,4.3-2.37,5.93
			C15.1,42.01,15.88,39.98,16.66,37.95z M370.26,69.42c4.56,3.24,8.07,1.64,10.83-0.8c2.24-1.99,2.81-5.71,1.09-8.07
			c-1.16-1.59-2.85-2.43-4.79-1.49c-1.79,0.87-2.35,2.55-1.82,4.42c0.17,0.61,0.84,1.37,1.4,1.49c0.57,0.13,1.55-0.28,1.88-0.77
			c0.29-0.43,0-1.31-0.16-1.96c-0.12-0.48-0.43-0.92-0.81-1.7c2.44,0.32,3.14,1.74,3.25,3.44c0.17,2.72-1.17,5.12-2.99,5.27
			c-2.63,0.21-5.29,0.16-7.94,0.23c-1.79-2.24-3.64-4.45-5.36-6.74c-1.06-1.42-1.92-2.98-2.89-4.47c-0.56-0.85-1.17-1.68-1.75-2.51
			c-0.15-0.35-0.3-0.7-0.45-1.04c-0.4,1.09-0.81,2.17-1.1,2.97c-8.53-3.92-12.75-2.44-15.98,5.19c1.18-0.72,2.18-1.4,3.25-1.96
			c3.9-2.06,8.02-1.91,11.77-0.09c2.78,1.35,5.03,3.75,7.59,5.57C366.86,67.51,368.59,68.42,370.26,69.42z M165.94,49.4
			c1.63,0.3,3.8-0.83,4.64,1.74c0.07,0.21,1.11,0.33,1.54,0.14c3.03-1.32,5.34-3.55,5.02-6.93c-0.19-1.98-1.43-4.3-2.95-5.61
			c-1.47-1.27-3.95-0.98-5.45,0.7c-0.83,0.92-1.8,2.7-1.43,3.48c0.61,1.28,2.22,2.15,3.53,2.99c0.21,0.13,1.52-0.77,1.58-1.29
			c0.07-0.58-0.62-1.33-1.12-1.88c-0.25-0.28-0.81-0.29-1.43-0.49c1.38-1.99,2.66-1.48,3.67-0.17c1.12,1.45,1.28,3.04-0.26,4.44
			c-1.48,1.35-4.27,1.67-5.41,0.18c-1.21-1.57-1.8-3.61-2.78-5.38c-0.36-0.65-1.04-1.13-1.57-1.69c-0.16,0.79-0.54,1.62-0.41,2.37
			c0.19,1.09,0.74,2.12,1.2,3.35c-0.9-0.62-1.58-1.09-2.26-1.55c-0.16,0.16-0.32,0.31-0.48,0.47c0.68,0.96,1.3,1.98,2.06,2.87
			c0.71,0.83,1.58,1.53,2.38,2.29c-4.94-0.9-5.73-5.09-6.98-9.13c-0.99,3.07,0.59,6.76,3.95,9.21c1.84,1.34,3.75,2.86,6.44,1.79
			C168.26,50.68,167.1,50.04,165.94,49.4z M240.95,23.55c0.51-0.19,1.2-0.24,1.51-0.61c1.96-2.34,3.83-4.75,5.59-6.95
			c-0.92-0.55-2.5-1-3.18-2.03c-0.67-1.02-0.44-2.64-0.62-4.1c-0.71,0.27-1.41,0.49-2.08,0.78c-5.39,2.38-11.03,3.25-16.76,1.87
			c-3.31-0.8-6.5-2.19-8.95-4.91c-1.49-1.65-3.38-3.02-5.29-4.18c-0.51-0.31-2,0.34-2.59,0.96c-0.47,0.5-0.26,1.64-0.34,2.49
			c0.83,0.04,1.67,0.06,2.5,0.12c0.22,0.02,0.43,0.18,0.85,0.37c-0.32,0.73-0.62,1.42-0.98,2.27c8.34,6,17.07,9.66,27.51,5.07
			c-3.58,3.5-5.18,7.16-4.04,9.42c3.21-3.45,5.28-3.61,6.95-0.52c-0.75-0.12-1.51-0.23-1.83-0.28c0.09,3.79-0.13,7.33,0.35,10.77
			c0.43,3.03,1.64,5.96,2.51,8.93c0.26-0.06,0.53-0.11,0.79-0.17c-2.71-10.61,0.52-19.13,9.25-25.72
			c-5.55,0.58-7.07,5.42-10.14,9.35C241.49,25.17,241.22,24.36,240.95,23.55z M288.33,24.51l-0.06-0.04
			c-0.43,1.57-1.03,3.11-1.24,4.71c-0.3,2.27,1.97,3.61,3.87,2.74c-0.77-1.08-1.88-2.12-2.25-3.38c-0.18-0.61,1.02-1.62,1.6-2.45
			c0.19,0.13,0.38,0.26,0.57,0.39c-0.07,0.31-0.16,0.61-0.19,0.92c-0.03,0.38-0.01,0.76-0.01,1.28c3.79-3.74,3.76-9.26,0.18-10.54
			c-1.08,0.81-2.12,1.59-3.16,2.36c0.42-2.79,2.15-5.11,0.6-7.8c-0.92,0.08-1.7,0.14-2.59,0.22c0-1.47,0.19-2.79-0.08-4.01
			c-0.13-0.58-1.14-0.97-1.75-1.45c-0.39,0.65-0.89,1.27-1.15,1.98c-0.21,0.57,0.1,1.67-0.2,1.82c-3.4,1.73-1.22,4.07-0.77,6.21
			c0.22,1.02,0.52,2.01,0.78,3.02c-0.22,0.07-0.45,0.14-0.67,0.21c-0.34-0.44-0.59-0.99-1.03-1.29c-0.87-0.6-1.83-1.07-2.75-1.6
			c-0.49,1.03-1.33,2.06-1.36,3.11c-0.03,0.91,0.77,1.91,1.36,2.75c0.71,1.01,1.73,1.81,2.36,2.86c0.88,1.48,0.18,3.78-1.26,4.3
			c-1.92,0.69-2.72-0.53-3.18-2.14c-0.11-0.4-0.27-0.78-0.4-1.18c-0.74-2.33-2.55-1.9-4.09-1.32c-1.85,0.7-0.85,1.94-0.2,3.02
			c0.16,0.26,0.2,0.58,0.31,0.9c-5.78,0.57-6.53,1.4-4.57,4.9c3.39-2.48,5.36-2.04,7.8,1.37c0.51,0.72,1.87,0.85,2.83,1.25
			c0.09-0.25,0.18-0.5,0.27-0.75c-0.25-0.33-0.49-0.66-0.69-0.93c1.98-0.16,3.86-0.31,5.75-0.46c0.11,1.93,0.21,3.86,0.32,5.8
			c0.36,0,0.72-0.01,1.08-0.01c-0.24-2.26,2.17-4.1,0.77-6.72c-0.89,0.4-1.56,0.7-2.23,1c1.52-3.74,2-7.59,1.45-11.61
			c-0.24-1.76-0.04-3.58-0.04-5.37c0.26-0.01,0.52-0.01,0.78-0.02c0.2,2.6,0.4,5.2,0.6,7.81C286.76,25.63,287.54,25.07,288.33,24.51
			z M124.6,31.57c-0.31,1.41,0.16,2.32,2.14,2.83c-0.27-1.31-0.47-2.28-0.67-3.25c-0.51,0.16-1.02,0.32-1.53,0.48
			c-0.18-0.77-0.76-1.82-0.46-2.26c1-1.47,0.08-2.28-0.69-3.26c-0.61-0.78-1.09-1.67-1.72-2.43c-1.8-2.16-3.27-4.85-5.54-6.3
			c-7.33-4.71-15.12-7.83-24.31-6.91c-9.23,0.92-17.9,3.23-26.09,7.47c-4.4,2.28-8.67,4.96-14.02,3.77
			c-0.17-0.04-0.4,0.23-0.58,0.34c-0.03,0.21-0.11,0.39-0.07,0.53c2.54,9.58-2.05,20.49-10.71,25.25c-1.95,1.07-4.1,1.79-6.11,2.76
			c-3.89,1.88-7.62,1.47-11.52-0.2c-2.06-0.88-4.48-0.94-6.75-1.28c-0.31-0.05-0.71,0.46-1.06,0.71c0.26,0.26,0.5,0.74,0.78,0.76
			c2.49,0.21,3.07,2.12,3.8,3.99c0.25,0.63,0.76,1.42,1.33,1.62c2.8,0.96,5.63,2.37,8.5,2.49c8.64,0.36,16.79-1.6,24.15-6.4
			c1.32-0.86,2.91-1.31,4.38-1.96c0.09,0.22,0.19,0.45,0.28,0.67c-4.69,4.38-10.75,6.3-16.95,8.73c4.44,1.5,5.52,2.72,5.53,5.84
			c0.01,2.23-1.07,3.42-3.23,3.59c-1.73,0.13-3.67-1.48-3.88-3.21c-0.18-1.51,1.05-2.51,2.83-2.2c-0.11,0.31-0.27,0.6-0.32,0.9
			c-0.09,0.59-0.2,1.19-0.13,1.77c0.02,0.13,0.9,0.39,1.05,0.25c0.44-0.43,0.89-1,1-1.57c0.32-1.67-0.36-3.46-1.96-3.42
			c-1.55,0.04-3.82,0.98-4.46,2.2c-2.15,4.11,1.2,7.16,4.24,7.77c4.08,0.82,10.79-2.95,12.25-6.84c0.52-1.39,0.83-2.86,1.32-4.27
			c2.15-6.26,8.8-10.18,15.52-7.02c1.12,0.53,2.24,1.12,3.42,1.46c0.55,0.16,1.57,0,1.84-0.39c1.54-2.25,3.52-2.07,5.1-0.56
			c2.43,2.31,4.49,5,6.7,7.53c0.62,0.71,1.23,1.44,1.85,2.16c0.32-0.11,0.63-0.22,0.95-0.33c-8.72-11.39-9.98-22.59,2.51-31.37
			c8.73-6.13,17.6-4.35,24.78,4.13c0.03-0.66-0.01-1.13-0.19-1.54c-2.64-5.95-9.94-9.52-17.93-9.41
			c-8.73,0.12-14.67,4.32-18.41,11.75c-1.72,3.41-2.68,7.21-3.88,10.87c-0.36,1.12-0.54,2.06-2.07,1.84
			c-4-0.57-8.01-1.08-11.83-1.58c0.98-0.27,2.3-0.93,3.63-0.96c2.23-0.04,4.46,0.41,6.69,0.44c0.73,0.01,1.89-0.44,2.12-0.99
			c0.96-2.26,1.52-4.69,2.46-6.96c2.43-5.91,5.72-11.34,11.75-14.11c5.86-2.69,11.98-3.76,18.44-1.21c4.87,1.92,8.8,4.57,11.04,9.4
			c0.19,0.42,0.75,0.66,1.14,0.99c0.15-0.1,0.31-0.2,0.46-0.3c-0.54-1.27-1.07-2.54-1.61-3.81c0.14-0.08,0.29-0.17,0.43-0.25
			c0.89,1.4,1.78,2.8,2.67,4.2c0.24-0.1,0.48-0.2,0.72-0.29c-0.09-0.66-0.3-1.34-0.22-1.98C123.57,31.99,124.22,31.8,124.6,31.57z
			 M265.62,49.48c-1.77-0.33-3.14-0.75-4.52-0.79c-0.85-0.03-2.06,0.26-2.52,0.86c-4.14,5.42-8.47,6.38-14.14,2.95
			c-9.7-5.87-13.21-14.87-12.89-25.68c0.08-2.73,0.75-5.45,1.15-8.22c-0.45-0.03-0.7-0.11-0.93-0.06
			c-5.26,1.12-10.23,0.51-14.72-2.56c-5.17-3.54-10.5-6.65-16.9-7.34c-10.06-1.1-19.81-0.87-28.62,5.23
			c-6.56,4.55-10.66,10.49-12.11,18.31c-0.39,2.11-0.79,3.78,2.26,2.1c0.26-0.14,0.82,0.06,1.15,0.25c1.78,1.06,2.5,0.11,3.53-1.31
			c1.57-2.15,3.41-4.22,5.51-5.85c3.01-2.36,6.51-3.6,10.46-4.09c4.18-0.52,8.16-1.15,12.11,0.86c8.18,4.17,13.56,10.26,14.58,19.74
			c0.27,2.54-1.05,2.85-2.9,3.45c-0.67-7.08-2.27-13.42-8.37-18c-6.01-4.5-12.27-5.57-19.44-3.79c-4.35,1.08-10.34,6.31-10.32,9.99
			c7.87-7.58,16.69-7.1,24.85-1.74c7.44,4.88,11.52,12.19,8.9,22.12c0.73-0.56,1.31-0.79,1.53-1.21c1.43-2.7,3.59-3.76,6.67-3.79
			c3.53-0.03,3.53-0.25,3.3,3.28c-0.01,0.13,0.16,0.27,0.42,0.68c5.19-2.99,10.35-1.48,15.63,0.4c-0.7-1.08-1.4-2.16-2.11-3.24
			c0.36-0.31,0.72-0.62,1.08-0.94c0.25,0.6,0.35,1.34,0.76,1.79c1.47,1.57,2.89,3.24,4.61,4.51c7.55,5.57,16,5.12,24.29,2.6
			C262.55,58.55,264.79,54.33,265.62,49.48z M334.72,21.54c-0.05,0.69-0.13,0.95-0.07,1.17c2.13,7.52,1.49,14.71-2.46,21.54
			c-3.21,5.55-8.09,8.43-14.4,9.38c-2.95,0.45-5.26-0.36-7.27-2.24c-1.35-1.26-2.46-2.79-3.68-4.21c-1.44,0.13-2.89,0.25-4.29,0.38
			c-0.39,4.11,1.45,6.98,4.5,9.28c-0.91-1.71-1.81-3.42-2.72-5.14c2.34,2,4.2,4.23,6.04,6.48c0.15,0.18,0.16,0.48,0.31,0.67
			c0.5,0.67,0.89,1.59,1.57,1.93c1.39,0.69,2.91,1.34,4.43,1.53c7.88,0.98,15.18-0.32,21.29-5.86c1.83-1.66,3.64-3.39,5.65-4.82
			c4-2.84,8.37-4.35,13.57-2.39c0.19-5.57,0.92-10.58,4.63-14.81c3.67-4.18,8.2-6.93,13.47-7.81c10.59-1.77,19.35,1.52,25.31,10.54
			c0.81-0.15,1.56-0.47,2.26-0.39c1.45,0.15,2.88,0.69,4.32,0.71c0.54,0.01,1.6-1.05,1.56-1.54c-0.19-2.01-0.3-4.2-1.18-5.95
			c-3.59-7.16-8.97-12.54-16.43-15.9c-8.5-3.83-17.22-4.46-25.93-1.65c-6.92,2.23-13.52,5.45-20.28,8.17
			c-1.14,0.46-2.38,0.83-3.59,0.91C339.12,21.64,336.91,21.54,334.72,21.54z M448.31,17.65c-0.19-0.16-0.38-0.32-0.58-0.48
			c2.67-4.51,2.7-4.7,0.88-6.07c-1.01,4.01-1.64,4.51-3.73,3.58c-2.71,1.3-5.07,2.43-7.88,3.77c2.2,0.13,3.93,0.24,6.33,0.38
			c-2.39,1.41-5.1-0.18-6.52,2.17c3.71,2.29,4.45,3.56,3.43,5.6c-5.49-5.5-5.71-5.62-6.89-3.46c1.02,0.49,2.05,0.98,3.08,1.47
			c-0.06,0.12-0.13,0.24-0.19,0.35c-2.19-0.16-4.37-0.32-6.57-0.48c0.06-0.19,0.06-0.41,0.16-0.48c1.49-0.95,3.56-5.28,3.1-6.86
			c-0.18-0.61-0.85-1.48-1.35-1.51c-1.98-0.15-2.15-1.2-2.5-2.9c-0.27-1.32-1.97-2.34-3.03-3.5c-0.78,1.06-1.99,2.03-2.23,3.2
			c-0.33,1.65-0.91,2.24-2.57,2.28c-0.71,0.02-1.4,0.82-2.1,1.26c0.15,0.22,0.3,0.43,0.45,0.65c0.48-0.18,0.97-0.36,1.45-0.53
			c0.16,0.13,0.31,0.25,0.47,0.38c-0.54,0.89-1.07,1.78-1.79,2.97c0.44,0.74,1.13,1.89,1.79,3c-2.59,0.46-5.09,0.48-7.23,1.38
			c-2.43,1.02-2.45,4.15-0.3,6.6c0.23-0.47,0.39-0.91,0.65-1.28c1.07-1.52,1.78-3.43,4.29-3.09c3.01,0.4,4.3,1.77,4.66,5.07
			c0.06,0.55,0.63,1.05,0.97,1.58c0.14-0.62,0.41-1.24,0.38-1.85c-0.04-0.83-0.3-1.65-0.47-2.48c0.24-0.06,0.49-0.12,0.73-0.18
			c0.47,1.49,0.94,2.97,1.63,5.15c0.26-1.21,0.39-1.67,0.46-2.14c0.35-2.55,2.29-4.46,5.06-4.98c2.2-0.41,4.96,0.73,5.96,2.74
			c0.36,0.73,0.06,1.78,0.06,2.69c-0.29,0.01-0.57,0.02-0.86,0.03c-0.27-0.49-0.57-0.96-0.81-1.47c-0.93-2.03-2.84-3.09-4.64-2.38
			c-1.39,0.55-2.43,2.43-3.22,3.92c-0.62,1.18,0.14,1.71,1.58,1.97c2.2,0.4,4.43,1.1,6.4,2.15c1.5,0.8,1.93,0.43,2.26-0.88
			c2.48-9.77,8.25-16.77,17.63-20.74c0.48-0.2,0.85-0.65,1.49-1.16c-3.58-1.5-1.4-3.2-0.19-4.95c-3.57-0.88-4.19,1.83-5.47,3.69
			C451.19,13.8,449.73,15.71,448.31,17.65z M244.79,29.68c1.83-0.5,3.46-1.08,5.13-1.38c2.58-0.46,3.63,1.74,4.79,3.31
			c0.49,0.66,0.25,2.28-0.24,3.13c-1.01,1.74-2.9,2.42-4.75,1.75c-0.88-0.32-1.65-1.65-1.93-2.67c-0.16-0.58,0.76-1.46,1.2-2.21
			c0.22,0.15,0.45,0.3,0.67,0.45c-0.11,0.28-0.39,0.62-0.31,0.84c0.27,0.82,0.66,1.6,1,2.39c0.66-0.5,1.65-0.87,1.91-1.53
			c0.83-2.14-1.4-4.92-3.4-4.09c-1.67,0.69-3.37,2.14-4.26,3.7c-1.93,3.37-1.05,6.9,0.56,10.22c0.81,1.68,1.8,3.27,2.71,4.9
			c0.27-0.13,0.54-0.25,0.82-0.38c-0.08-0.77-0.19-1.54-0.23-2.32c-0.16-3.24,0.41-6.11,3.84-7.58c3.89-1.66,7.77-1.6,11.67-0.07
			c0.04-0.15,0.13-0.32,0.1-0.45c-1.46-4.94-0.74-6.71,3.59-9.22c0.47-0.28,0.58-1.19,0.85-1.8c-0.15-0.19-0.31-0.38-0.46-0.57
			c-3.39,2.21-6.91,3.74-10.66,1.44c-4.16-2.54-3.86-6.27-2.06-10.24C251.57,17.88,244.49,26.39,244.79,29.68z M448.64,39.57
			c-3.44,0-6.13,0-8.82,0c-0.02,0.21-0.05,0.42-0.07,0.63c1.69,0.2,3.38,0.4,5.1,0.61c-1.13,4.14-1.75,4.46-4.11,2.24
			c0.13,3.14,1.48,5.65,3.38,7.88c2.61,3.04,6.21,3.56,9.55,2.22c2.92-1.17,4.09-4.15,3.76-7.44c-0.04-0.41,0.17-0.85,0.4-1.89
			c2.91,5.1,0.29,8.19-3.28,11.29c4.22-0.52,7.76-3.29,8.57-6.34c0.78-2.94,0.33-5.71-2.09-7.71c-1.65-1.36-3.66-2.03-5.98-1.04
			c0.78,1.11,1.41,2.01,1.97,2.8c-2.43-0.43-4.92-1.63-6.7-0.96c-1.69,0.63-2.64,3.23-3.91,4.95
			C445.48,44.35,446.17,42.06,448.64,39.57z M389.62,31.12c0.07-0.29,0.13-0.58,0.2-0.87c-3.75-1.61-7.76-3.21-11.78-2.6
			c-5,0.76-10.04,2.11-13.58,6.47c-4.03,4.98-6.12,10.36-4.55,16.76c0.15,0.6,0.83,1.39,1.38,1.5c3.46,0.69,5.06,3.1,6.26,6.08
			c0.63,1.58,1.62,3.01,2.45,4.51c0.24-0.13,0.47-0.27,0.71-0.4c-0.57-1.06-1.2-2.09-1.7-3.19c-2.91-6.38-4.9-12.92-1.79-19.78
			c2.42-5.32,6.51-10.03,13.8-9.13C383.87,30.84,386.75,30.92,389.62,31.12z M509.59,65.47c-0.27-1.16-0.32-1.86-0.59-2.46
			c-1.74-3.88-5.95-5.44-10.98-4.3c-0.71,0.16-1.88-0.23-2.37-0.78c-1.69-1.9-3.2-2.42-5.02-0.69c-2.36,2.25-4.32,4.91-6.46,7.39
			c0.2,0.19,0.39,0.37,0.59,0.56c0.71-0.47,1.42-0.95,2.13-1.42c-0.38,1.43-1.06,2.52-1.9,3.49c-2.66,3.09-8.04,4.34-11.22,2.15
			c-1.23-0.85-1.96-2.96-2.15-4.59c-0.15-1.24,1.16-2.23,2.53-1.96c0.35,1.24,0.62,2.24,0.9,3.24c0.66-0.22,1.71-0.26,1.9-0.68
			c0.54-1.19,0.73-2.54,1.05-3.82c0.02-0.06-0.06-0.15-0.1-0.22c-0.91-1.76-1.97-3.23-4.34-3.06c-2.51,0.19-4.23,1.37-5.14,3.66
			c-1.22,3.06-0.26,5.79,1.28,8.48c1.13,1.97,2.53,2.23,4.18,0.56c3.68,1.93,4.11,2.13,7.84,0.03c3.6-2.02,7.02-4.38,10.36-6.8
			C498.27,59.76,503.85,59.94,509.59,65.47z M252.46,7.86c0,0.32-0.01,0.65-0.01,0.97c-1.01,0.15-2.15,0.07-3.01,0.52
			c-1.1,0.57-2.05,1.5-2.86,2.45c-0.16,0.19,0.59,1.68,0.97,1.7c1.33,0.09,2.71-0.08,4.01-0.41c0.53-0.13,0.8-1.1,1.35-1.4
			c1.7-0.93,3.47-2.4,5.22-2.42c3.01-0.03,5.52,1.51,6.67,4.66c1.13,3.09,0.26,5.68-1.74,8.03c-1.21,1.43-2.78,1.22-4.01,0.26
			c-0.52-0.41-0.45-1.73-0.39-2.61c0.02-0.33,0.8-0.6,1.25-0.91c0.48,0.78,0.83,1.36,1.21,1.99c1.6-1.71,1.21-3.48-0.82-3.87
			c-0.85-0.17-2.38,0.06-2.64,0.58c-0.77,1.53-1.57,3.35-1.4,4.97c0.26,2.65,2.27,4.16,4.67,4.36c3.86,0.32,7.08-1.33,8.39-4.48
			c1.73-4.18,1.54-8.34-1.01-12.09c-1.52-2.23-3.56-4.1-6.43-4.46c1.57,1.82,3.68,3.19,4.83,5.14c1.2,2.03,1.9,4.57,2.05,6.94
			c0.21,3.29-0.75,4.47-3.05,5.7c0.41-0.92,0.9-1.87,1.25-2.86c1.7-4.86-0.35-10.39-4.92-12.64c-1.57-0.77-3.45-1.06-5.23-1.22
			c-3.34-0.31-6.7-0.41-10.06-0.52c-0.44-0.01-0.89,0.41-1.95,0.95C247.82,7.45,250.14,7.65,252.46,7.86z M62.87,56.71
			c1.81,0.18,3,0.15,4.1,0.44c5.02,1.36,8.98,4.55,12.86,7.75c3.3,2.72,6.8,5.15,10.99,5.84c4.1,0.68,8.17-0.58,10.4-4.64
			c2.13-3.89-0.12-8.36-4.34-8.73c-2.71-0.24-5.04,2.07-4.51,4.59c0.13,0.62,0.75,1.34,1.32,1.58c0.38,0.16,1.4-0.35,1.55-0.77
			c0.17-0.49-0.25-1.22-0.51-1.8c-0.18-0.39-0.53-0.7-0.87-1.12c3.06-0.68,4.15,0.34,5.08,4.21c0.7,2.92-1.87,4.69-4.46,5.15
			c-1.75,0.31-3.68-0.43-5.53-0.69c0.03-0.27,0.06-0.54,0.09-0.81c0.56-0.11,1.12-0.23,1.16-0.24c-1.63-2.02-3.29-4.05-4.93-6.1
			c-1.24-1.54-2.33-3.23-3.74-4.59c-0.74-0.71-2.03-0.85-3.08-1.25c-0.21,1.04-0.4,2.09-0.62,3.13c-0.06,0.29-0.16,0.57-0.28,0.98
			c-2.32-1.45-4.34-3.09-6.65-4.06C68.48,54.55,65.8,54.38,62.87,56.71z M306.75,5.91c-0.3,0.06-0.63,0.04-0.89,0.18
			c-5.2,2.81-7.9,8.78-6.23,14.36c1.44,4.81,8.33,5.99,10.79,3.29c0.86-0.95,1.38-2.64,1.23-3.91c-0.09-0.82-1.57-1.78-2.61-2.09
			c-0.62-0.18-1.58,0.78-2.38,1.22c0.72,0.51,1.41,1.08,2.17,1.52c0.31,0.18,0.79,0.07,1.19,0.1c0.04,0.24,0.08,0.48,0.12,0.72
			c-1.11,0.29-2.46,1.09-3.27,0.72c-0.92-0.41-1.82-1.85-1.88-2.9c-0.09-1.53,0.17-3.37,0.97-4.63c3-4.68,9.39-5.84,14-2.8
			c0.62,0.41,1.29,0.76,1.89,1.2c1.36,1,2.54,0.8,3.34-0.62c0.87-1.55-0.04-2.46-1.4-3.12c-0.71-0.35-1.41-0.74-2.09-1.15
			c-0.72-0.44-1.37-1.09-2.14-1.34c-1.09-0.35-2.29-0.35-3.41-0.62c-4.5-1.09-10.87,1.96-12.67,6.23c-0.7,1.66-1.08,3.46-1.6,5.2
			C299.87,12.04,303.1,8.94,306.75,5.91z M145.41,43.19c2.94,1.54,6.33,0.55,8.86-2.37c2.15-2.48,1.62-4.48-1.36-5.79
			c-3.7-1.62-7.63-1.82-11.47-1.41c-3.5,0.37-7.11,1.11-9.79,3.79c-0.98,0.98-2.06,2.08-0.55,3.57c2.18,2.15,4.94,2.97,7.85,3.22
			c0.79,0.07,1.67-0.79,2.5-1.22c-0.77-0.51-1.5-1.09-2.31-1.52c-0.84-0.45-1.76-0.78-2.64-1.16c0.75-1.01,1.32-2.63,2.28-2.9
			c2.18-0.62,4.57-0.85,6.83-0.69c1.39,0.1,2.71,1.23,4.06,1.9c-1.21,1-2.41,2.01-3.64,3c-0.07,0.06-0.3-0.07-0.61-0.16
			c-0.12-0.56-0.19-1.21-0.4-1.81c-0.09-0.25-0.49-0.61-0.67-0.57c-0.34,0.08-0.89,0.41-0.89,0.64c0,2.44,0.1,4.88,0.16,7.33
			c0.29,0.01,0.59,0.01,0.88,0.02C144.79,45.84,145.08,44.62,145.41,43.19z M120.7,37.27c-0.36,3.12-0.52,5.78-0.99,8.37
			c-0.48,2.63-3.68,4.09-5.93,2.61c-0.84-0.55-1.54-2.09-1.42-3.07c0.1-0.82,1.39-1.67,2.34-2.14c0.42-0.2,1.29,0.53,2.28,0.98
			c-0.69,0.44-0.82,0.55-0.96,0.6c-0.77,0.23-1.58,0.35-2.26,0.72c-0.13,0.07,0.23,1.6,0.47,1.64c0.89,0.12,2.26,0.24,2.67-0.27
			c0.79-0.97,1.69-2.58,1.37-3.53c-0.39-1.15-1.87-2.33-3.11-2.72c-1.63-0.5-3.49-0.27-4.54,1.62c-1.08,1.94-1.94,3.84-0.61,6.05
			c2.35,3.9,4.56,4.81,8.89,3.45c5.56-1.74,7.68-5.14,7.75-10.87c0-0.36-0.41-0.94-0.73-1.03c-0.33-0.09-0.89,0.22-1.16,0.53
			c-0.28,0.31-0.33,0.82-0.49,1.25c-0.97-0.9-1.78-1.65-3-2.79c2.66-0.16,4.84-0.28,7.02-0.41c-0.01-0.33-0.03-0.66-0.04-0.98
			C125.55,37.27,122.86,37.27,120.7,37.27z M130.14,28.39c1.01-1.96,1.72-4.11,4.31-3.72c-0.72,1.63-1.34,3.02-1.95,4.41
			c1.09,0.29,2.19,0.57,3.28,0.86c-1.47,0.56-3.18,1.17-4.67,0.83c-1.54-0.35-2.86-1.64-4.41-2.59c0.34,1.58,0.76,3.06,0.96,4.56
			c0.34,2.61,1.5,3.2,3.88,2.09c2.23-1.04,4.58-1.84,6.87-2.78c0.79-0.32,2.19-0.77,2.18-1.12c-0.04-1.13-0.27-2.61-1.03-3.3
			c-2.34-2.14-3.85-5.74-8.19-5.17c1.03-0.61,1.99-0.89,2.9-0.77c0.87,0.11,1.67,0.71,2.54,0.96c1.56,0.46,3.38,1.37,4.52-0.41
			c1.16-1.81-0.43-3.03-1.58-4.22c-1.46-1.52-1.8-3.1-0.36-4.85c0.23-0.27,0.25-0.71,0.38-1.08c-2.3-0.58-3.86,0.4-3.89,2.4
			c-0.03,1.72,0.37,3.2,2.08,4.21c0.65,0.38,0.88,1.48,1.29,2.25c-0.93-0.05-1.89,0.01-2.78-0.2c-0.79-0.19-1.48-0.73-2.25-1.03
			c-2.49-0.94-3.99-0.19-5.46,2.71C127.3,25.26,127.59,26.7,130.14,28.39z M397.2,42.66c-0.18,1.4-0.31,2.42-0.44,3.44
			c0.86,0.01,2.07,0.38,2.51-0.04c0.87-0.84,1.79-2.09,1.85-3.21c0.11-2.11-3.84-4.38-5.86-3.63c-2.78,1.03-4.6,3.77-4.48,6.78
			c0.12,3.05,2.08,5.42,5.14,6.23c5.32,1.4,11.32-2.52,12.38-7.98c0.31-1.57,0.96-3.07,1.49-4.7c-2.12,0-4.79,0-8.11,0
			c4.02,2.02,4.07,2.12,3.04,5.02c-0.34-0.64-0.6-1.14-1.06-2.01c-0.24,0.96-0.36,1.5-0.5,2.03c-0.96,3.5-3.16,4.8-6.69,3.98
			c-1.98-0.46-2.43-1.94-2.14-3.61C394.59,43.43,395.31,42.14,397.2,42.66z M273.01,63.22c2.87,1.28,3.59,0.84,4.09-1.79
			c0.23-1.23,1-2.4,1.72-3.47c0.08-0.13,2.03,0.64,2,0.83c-0.19,1.26-0.75,2.45-1.05,3.7c-0.17,0.71-0.39,1.76-0.03,2.15
			c0.48,0.52,1.49,0.68,2.3,0.75c0.44,0.04,0.92-0.43,1.87-0.92c-0.18,1.75-0.57,3.06-0.37,4.28c0.17,0.99,0.92,2.01,1.69,2.71
			c0.23,0.21,1.86-0.48,2.06-1.03c0.31-0.87,0.3-2.6-0.19-2.87c-2.52-1.4-2.12-3.64-2.27-5.85c-0.29-4.34-4.45-7.73-8.33-6.66
			c0.89,0.32,1.59,0.57,2.65,0.95c-1.8,0.62-3.19,1.1-4.88,1.69c0.39-0.91,0.62-1.43,0.92-2.14c-2.18,0.78-5.25,4.98-5.09,6.73
			c0.02,0.22,0.12,0.5,0.28,0.63c1.93,1.48,0.63,1.97-0.73,2.57c-1.66,0.74-3.07,1.77-3.44,4.03
			C270.99,69.82,271.78,66.22,273.01,63.22z M418.96,40.69c0.02-0.26,0.04-0.51,0.05-0.77c3.02-1.87,6.23-3.05,9.9-1.88
			c1.33,0.42,2.53,1.22,3.79,1.85c-1.11,0.57-2.28,1.05-3.29,1.76c-0.49,0.35-0.76,1.1-0.93,1.73c-0.04,0.13,0.9,0.8,1.24,0.71
			c2.2-0.62,4.58-1.03,6.48-2.18c2.46-1.5,2.26-2.57-0.13-4.17c-5.31-3.54-17.73-2.85-22.52,1.24c-1.58,1.35-1.46,2.97,0.71,3.8
			c2.28,0.87,4.8,1.23,7.24,1.54c0.72,0.09,1.56-0.74,2.35-1.15c-0.68-0.55-1.29-1.23-2.05-1.6
			C420.93,41.14,419.92,40.97,418.96,40.69z M296.52,66.45c0.46,3.31,2.11,4.63,6.06,4.98c2.17,0.19,4.07-0.06,4.8-2.38
			c-1.41,0.25-2.8,0.86-4.04,0.65c-2.57-0.45-4.95-3.77-5.02-6.39c-0.08-3.01-0.8-5.77-3.5-7.55c-0.52-0.34-1.33-0.44-1.97-0.37
			c-0.85,0.09-1.66,0.46-2.49,0.71c-1.14,0.34-3.2,0.59-3.25,1.06c-0.3,2.63-0.18,5.32,0,7.98c0.02,0.29,1.32,0.5,2.03,0.75
			c0.16-0.78,0.5-1.59,0.41-2.34c-0.07-0.58-0.95-1.07-1.01-1.65c-0.11-0.97-0.15-2.17,0.33-2.92c0.32-0.5,1.98-0.83,2.36-0.48
			c0.66,0.59,1.15,1.8,1.08,2.69C291.89,65.93,291.91,66.05,296.52,66.45z M126.19,26.52c-0.88-4.67,2.81-6.58,5.26-9.55
			c-2.84-0.46-5.52-0.48-8.2-0.45c-4.09,0.04-7.07-2.13-7.41-6.13c-0.29-3.35-3.58-5.39-7.4-4.67c-0.4,0.07-0.72,0.53-1.08,0.81
			c0.35,0.38,0.64,0.96,1.07,1.1c0.7,0.23,1.5,0.17,2.26,0.24c0.06,0.25,0.11,0.5,0.17,0.75c-0.95,0.5-1.9,1-3.03,1.6
			C116.05,13.43,121.6,19.31,126.19,26.52z M401.25,73.17c2.32-0.81,3.29-2.69,3.77-4.73c0.66-2.8,0.4-5.73-2.23-7.34
			c-2.41-1.47-5.2-2.49-7.96-3.19c-5.18-1.31-7.86-4.87-9.58-9.5c-0.4-1.09-0.69-2.22-1.2-3.89c-2.11,8.53,2.92,15.54,10.59,16.3
			c7.24,0.72,9.83,5.54,6.44,11.66C401.03,72.59,401.15,72.79,401.25,73.17z M247.93,51.34c0.07-0.26,0.14-0.52,0.21-0.78
			c-0.24-0.2-0.47-0.44-0.74-0.6c-6.88-4-9.84-10.22-10.18-17.88c-0.08-1.72,0.29-3.46,0.25-5.19c-0.01-0.57-0.55-1.44-1.04-1.61
			c-0.86-0.3-3.69,2.16-3.58,3.08c0.34,2.94,0.3,6.07,1.34,8.77c2.14,5.55,5.58,10.33,10.94,13.38
			C245.96,50.97,246.99,51.07,247.93,51.34z M472.28,34.8c0,0.56,0,1.02,0,1.72c-1.28-0.75-2.3-1.35-3.32-1.95
			c-0.16,0.19-0.33,0.38-0.49,0.57c4.31,2.67,6.24,6.88,7.86,11.31c0.32,0.86,1,1.59,1.51,2.39c0.68-0.63,1.35-1.26,2.04-1.87
			c0.11-0.09,0.31-0.08,0.78-0.18c2.03,4.14,1.89,8.47,0.7,13.42C487.45,51.72,481.22,38.96,472.28,34.8z M89.58,40.85
			c0.27,0.03,0.53,0.07,0.8,0.1c0.12,0.55,0.05,1.28,0.39,1.6c0.75,0.72,1.74,1.75,2.56,1.69c0.75-0.06,2.03-1.44,1.97-2.15
			c-0.23-2.91,1.07-5.02,2.72-7.18c1.72-2.25,3.57-3.94,6.63-3.66c0.11,0.01,0.26-0.33,0.85-1.13c-2.46,0.33-4.37,0.51-6.24,0.88
			c-0.45,0.09-0.96,0.7-1.14,1.18c-0.55,1.41-4.08,4.4-5.31,4.02c-1.58-0.49-1.96,0.01-2,1.43c-0.01,0.35-0.24,0.81-0.52,1.02
			c-4.31,3.15-5.7,8.78-3.24,13.27C90.02,48.8,88.46,44.47,89.58,40.85z M190,33.67c0.57,2.59,1.11,4.81,1.54,7.06
			c0.17,0.88-0.05,1.84,0.14,2.71c0.45,2.16,1.75,2.82,3.7,2.12c-0.59-0.46-1.25-0.97-2.46-1.92c1.38,0,2.01,0.11,2.58-0.02
			c2.51-0.55,2.81-0.24,2.66,2.32c-0.06,1.11,0.13,2.31,0.54,3.34c1.47,3.76,1.2,7.23-1.33,10.47c-0.46,0.59-0.83,1.25-1.24,1.88
			c0.19,0.13,0.38,0.25,0.57,0.38c2.17-1.28,3.59-3.23,3.87-5.77c0.28-2.5,0.38-5.05,0.18-7.56C200.21,41.64,195.92,37.15,190,33.67
			z M323.81,23.94c-1.19-2.01-1.85-3.65-2.97-4.87c-1.05-1.14-2.6-1.82-3.93-2.71c-0.13,0.2-0.25,0.4-0.38,0.6
			c6.98,6.91,9.91,15.28,8.8,25.25c4.87-4.19,4.55-12.29-0.62-21.12C324.45,21.88,324.24,22.56,323.81,23.94z M255.13,47.44
			c-2.39-1.45-1.34-3.13-0.44-4.12c1.91-2.1,3.52-0.4,4.83,0.85c0.92-0.48,1.71-0.9,2.8-1.48c-0.74-1.21-1.32-3.42-2.47-3.78
			c-2.53-0.78-5.41-0.98-7.66,1.28c-2.12,2.14-2.83,4.61-1.8,7.46c0.68,1.87,1.97,3.05,4.13,2.83c1.49-0.15,3.52-2.48,3.4-4.08
			c-0.04-0.56-0.75-1.07-1.15-1.6c-0.41,0.4-0.88,0.75-1.21,1.21C255.35,46.3,255.33,46.75,255.13,47.44z M312.8,45.48
			c-1.35-1.12-1.92-1.83-2.65-2.09c-0.32-0.12-1.41,0.71-1.38,1.06c0.06,0.82,0.44,1.71,0.93,2.39c0.89,1.23,2.25,2.05,3.63,1.05
			c1.23-0.9,2.61-2.14,3.01-3.49c0.68-2.34-0.55-4.41-2.65-5.61c-2.27-1.3-4.73-2.19-7.24-0.39c-0.29,0.21-0.55,0.47-0.93,0.79
			c0.75,0.21,1.28,0.36,2.17,0.61c-2.25,1.27-3.69,2.71-2.94,5.28c0.9,0,1.67,0,2.44,0c-0.18-0.21-0.36-0.42-0.53-0.63
			c0.91-1.04,1.65-2.62,2.77-2.95c1.01-0.3,2.52,0.62,3.6,1.33C313.34,43.04,312.92,44.36,312.8,45.48z M450.36,73.94
			c0.21-0.18,0.43-0.36,0.64-0.54c-0.29-0.43-0.53-0.89-0.86-1.29c-3.34-3.98-2.95-8.04,1.38-10.94c1.42-0.95,3.34-1.38,5.08-1.61
			c5.78-0.76,8.88-3.28,10.27-8.87c0.27-1.08,0.15-2.25,0.21-3.38c-0.25-0.03-0.5-0.06-0.75-0.08c-0.26,0.75-0.56,1.49-0.76,2.25
			c-1.14,4.49-4.1,6.99-8.55,7.93c-1.55,0.33-3.09,0.66-4.63,1.03c-5.41,1.3-7.94,6.98-5.14,11.79
			C448.04,71.61,449.3,72.71,450.36,73.94z M8.84,66.88c0.3-1.75,0.81-3.08,0.67-4.33c-0.18-1.61-0.99-3.15-1.31-4.76
			c-0.12-0.62,0.37-1.35,0.58-2.04c0.43,0.53,1.11,1.01,1.24,1.6c0.62,2.9,1.03,5.84,1.64,8.74c0.66,3.12,3.4,5.69,6.47,6.07
			c0.72,0.09,1.5-0.34,2.4-0.57c-2.08-1.15-3.98-1.84-5.39-3.07c-3.23-2.82-3.48-6.71-3.37-10.71c0.04-1.4-0.31-2.95-0.96-4.18
			c-0.83-1.59-3.32-1.65-4.1-0.1c-0.62,1.23-1.01,2.9-0.73,4.21C6.59,60.59,7.68,63.32,8.84,66.88z M266.88,40.8
			c0.31,1.17,0.35,2.09,0.79,2.72c0.35,0.5,1.3,1.06,1.8,0.92c3.5-0.94,6.98-1.95,10.37-3.2c0.62-0.23,0.77-1.71,1.14-2.61
			c-0.73-0.05-1.46-0.15-2.18-0.14c-0.86,0.01-1.9,0.47-2.53,0.13c-1.42-0.78-2.81-1.77-3.86-2.97c-1.2-1.37-2.1-1.03-3.09-0.01
			c-1.08,1.12-1.31,2.38-0.42,3.79c0.87-0.16,1.6-0.3,2.63-0.5C270.86,42.11,268.84,41.26,266.88,40.8z M294.18,28.3
			c0.67,0.19,1.18,0.34,1.91,0.54c-1.71,1.61-3.06,3.29-4.78,4.39c-2.29,1.46-3.88-0.51-5.76-1.68c1.19,2.13,2.53,4.12,4.3,5.63
			c0.63,0.54,2.53,0.31,3.39-0.26c4.08-2.69,4.02-2.78,8.3,0.07c-0.24-1.48-0.25-2.56-0.6-3.52c-0.86-2.39-2.97-1.18-4.91-1.21
			c0.39-0.76,0.68-1.22,0.87-1.72c0.33-0.85,1.12-2.1,0.81-2.53C296.81,26.78,295.49,26.72,294.18,28.3z M149.7,23.39
			c0.01,0.41,0.01,0.81,0.02,1.22c2.59-0.7,4.51-0.04,5.41,2.45c2.54-2.4,2.85-5.19,1.03-6.9c-2.07-1.94-4.44-1.81-6.55,0.2
			c-0.46,0.44-1.31,0.48-1.98,0.71c0.19-0.85,0.11-2.18,0.62-2.46c2.12-1.16,2.04-3.12,2.06-4.96c0.02-1.21-0.51-2.41-2.26-2.06
			c0.72,3.08,0.71,3.08-1.21,5.68c-0.29,0.4-0.71,0.83-0.74,1.27c-0.08,1.14-0.39,2.95,0.15,3.29c0.9,0.57,2.42,0.33,3.64,0.16
			c0.67-0.1,1.21-0.89,1.89-1.13c1.49-0.53,2.57-0.09,3.05,1.07C152.92,22.47,151.31,22.93,149.7,23.39z M161.24,68.55
			c0.2-1.18,0.24-1.66,0.37-2.1c0.71-2.42,1.57-4.95,4.24-5.7c4.36-1.23,9.15-0.86,13.12-3.53c0.5-0.34,1.12-0.63,1.42-1.11
			c0.19-0.3-0.04-1.29-0.18-1.31c-0.67-0.1-1.4-0.1-2.05,0.09c-2.12,0.61-4.23,1.26-6.31,2c-2.85,1.02-5.82,1.87-8.47,3.29
			C160.65,61.64,159.85,64.96,161.24,68.55z M143.7,19.77c-0.2-1.46-0.27-2.3-0.45-3.12c-0.61-2.74-1.1-5.46-0.16-8.13
			c0.33-0.01,0.66-0.03,0.99-0.04c0.18,2.9,0.37,5.81,0.57,9.08c3.47-4.11,2.38-10.73-1.73-12.51c-1.1,1.34-3.03,2.47-1.95,4.59
			c0.76,1.48,0.32,2.42-0.48,3.58c-0.86,1.24-1.64,2.66-0.22,4.02C141.09,18.01,142.09,18.59,143.7,19.77z M298.68,39.32
			c-0.32-0.91-0.54-2.18-0.83-2.2c-0.88-0.06-1.98,0.14-2.66,0.66c-2.17,1.65-4.28,2.47-6.79,0.73c-0.39-0.27-1.42-0.36-1.51-0.19
			c-0.33,0.61-0.58,1.41-0.45,2.05c0.07,0.38,0.89,0.7,1.43,0.9c3.22,1.18,6.55,2.11,9.65,3.55c2.03,0.94,2.34,1.09,2.69-1.11
			c0.12-0.76,0.1-1.54,0.15-2.38c-3.39,0.5-3.39,0.5-4.43-1.76C296.73,39.49,297.51,39.43,298.68,39.32z M19.8,21.66
			c-0.12-0.96-0.16-1.5-0.27-2.02c-0.64-3.01,1.05-6.94,3.75-8.64c1.81-1.15,5.42-0.54,7.8,1.16c0.57,0.41,1.43,0.43,2.63,0.75
			c-2-3.54-5.35-4.89-9.34-4.25c-3.43,0.54-6.98,3.78-7.22,7.01C17,17.79,17.08,20.1,19.8,21.66z M224.56,10.08
			c6.21,2.05,12.71,1.21,18.76-2.16c-0.05-0.98-0.11-1.99-0.19-3.41c-1.64,0.6-3.02,1.11-4.9,1.8c1.72,0.22,2.82,0.37,4.57,0.59
			c-4.96,2.37-7.14,2.33-7.5,0.47C231.93,8.24,228.53,9.09,224.56,10.08z M35.83,43.37c3.2-1.75,5.41-6.73,4.93-10.38
			c-0.21-1.61-0.37-3.4-1.2-4.7c-0.46-0.72-2.45-1.11-3.41-0.75c-1.4,0.53-0.55,1.69,0.13,2.62c2.62,3.59,2.67,7.99,0.24,11.74
			C36.23,42.36,36.06,42.88,35.83,43.37z M263.16,16.69c0.31-3.12-1.19-5.36-3.67-6.04c-2.17-0.59-6.18,1.97-7.38,4.86
			C255.91,14.4,259.61,13.61,263.16,16.69z M326.9,8.91c3.78,6.31,13.05,7.88,16.67,2.44C337.08,14.66,332.21,10.74,326.9,8.91z
			 M144.68,63.42c-0.19,0.11-0.37,0.23-0.56,0.34c0.3,1.04,0.32,2.35,0.99,3.06c0.77,0.81,2.13,1.54,3.2,1.48
			c0.98-0.05,2.37-1.01,2.72-1.9c0.37-0.94,0.12-2.72-0.57-3.34c-1.18-1.05-2.91-1.48-4.42-2.17c-0.2,0.24-0.41,0.49-0.61,0.73
			c1.17,1.46,2.34,2.92,3.51,4.38c-0.19,0.17-0.38,0.35-0.57,0.52C147.14,65.49,145.91,64.46,144.68,63.42z M134.52,58.56
			c0.11-0.26,0.21-0.52,0.32-0.77c0.3,0.03,0.64-0.02,0.9,0.1c1.49,0.64,3.28,0.99,3.63-0.88c0.15-0.81-1.56-2.46-2.74-2.9
			c-1.77-0.67-3.17,0.45-3.75,2.27c-0.61,1.91,0,3.42,1.77,4.38c1.52,0.83,2.54,0.5,3.59-1.08
			C136.99,59.3,135.76,58.93,134.52,58.56z M143.41,55.31c1.9,0.18,3.31-0.42,3.2-2.81c-0.1-2.01-1.57-3.27-3.72-3.04
			c-2.06,0.22-2.84,1.74-2.81,3.48C140.1,54.84,141.28,55.77,143.41,55.31z M421.61,58.82c-1.04-1.95-2.14-3.86-4.52-2.91
			c-1.49,0.59-3.11,1.8-2.4,4.01c0.63,1.94,2.5,2.75,4.78,2.08c0.07-0.02,0.07-0.26,0.09-0.4c-0.46-0.22-0.92-0.44-1.75-0.84
			C419.25,60.04,420.32,59.49,421.61,58.82z M139.64,61.43c-1.35,1.11-2.46,1.81-3.29,2.75c-1.27,1.45-1.33,3.38,0.23,4.33
			c1.04,0.64,3.13,0.53,4.21-0.13c0.93-0.57,1.17-2.36,1.54-3.66c0.1-0.37-0.43-0.91-0.67-1.37c-0.4,0.23-0.9,0.37-1.17,0.7
			c-0.81,1-1.52,2.08-2.61,3.59C136.79,64.78,140.2,64.33,139.64,61.43z M423.82,65.27c-0.54-0.42-1.41-1.6-2.49-1.83
			c-1.6-0.35-4.36,2.14-3.82,3.34c0.59,1.3,1.9,2.55,3.2,3.17C421.88,70.51,423.73,68.05,423.82,65.27z M428.23,54.07
			c-0.07-1.93-1.65-2.85-3.17-2.47c-1.31,0.32-2.95,1.68-3.28,2.89c-0.4,1.43,0.95,2.74,2.74,2.82
			C426.14,57.38,428.17,55.62,428.23,54.07z M414.88,18.28c-1.16-1.87-5.88-3.83-8.71-3.02c-2.08,0.6-3.34-0.24-4.59-1.56
			c-0.46-0.48-0.92-0.97-1.65-1.74c0.3,2.71,2.39,5.16,4.79,5.48C408.15,17.9,411.62,18.02,414.88,18.28z M123.35,13.92
			c-3.34-0.53-4.11-3.19-5.27-6.03c-0.71,3.43,0.12,6.05,2.52,6.56c3.92,0.83,8.01,0.94,12.31,1.38c-1.22-2.11-3.19-1.43-4.68-1.98
			c-1.58-0.58-3.01-1.58-4.58-2.44C123.57,12.05,123.48,12.84,123.35,13.92z M427.87,63.99c0.74,1.62,1.34,2.95,1.94,4.27
			c-0.24,0.13-0.48,0.27-0.73,0.4c-0.97-1.45-1.93-2.9-3.24-4.85c-0.34,4.2,1.02,6.33,3.6,6.43c1.9,0.07,2.93-0.96,3.1-2.82
			C432.74,65.41,431.47,64.39,427.87,63.99z M146.37,60.03c2.55,0.67,4.57,1.61,5.99-0.78c0.76-1.27-0.06-4.25-1.31-4.63
			c-2.25-0.68-3.43,0.82-4.65,2.55c0.82,0.49,1.47,0.88,2.32,1.38C147.96,59.03,147.43,59.36,146.37,60.03z M429.32,61.97
			c1.14,1.32,2.65,1.72,4.31,0.5c1.58-1.16,1.79-2.74,0.68-4.36c-1.32-1.92-3.09-1.26-4.64-0.45c-0.6,0.31-0.81,1.34-1.2,2.05
			c0.19,0.04,0.37,0.08,0.56,0.12c0.87-0.49,1.73-0.97,2.6-1.46c0.14,0.21,0.28,0.41,0.42,0.62
			C431.18,59.94,430.32,60.88,429.32,61.97z M403.14,12.18c1.93-0.94,3.31-1.58,4.66-2.28c0.48-0.25,1.28-0.64,1.26-0.92
			c-0.04-0.65-0.34-1.44-0.81-1.88c-1.37-1.28-4.17-0.97-5.27,0.73C401.94,9.43,401.91,11.17,403.14,12.18z M15.17,15.99
			c0-2.55-0.45-4.88,0.11-6.93c0.76-2.78,3.44-2.79,6.46-2.38c-2.03-1.85-3.75-1.59-5.42-0.85c-2.74,1.21-3.7,3.62-3.76,6.39
			C12.52,13.8,13.04,15.26,15.17,15.99z M7.28,42.49C5.1,42.49,3.9,43.68,4,45.34c0.09,1.56,0.33,3.64,2.61,3.9
			c1.79,0.2,3.27-1.64,3.3-3.84C9.94,43.45,8.85,42.62,7.28,42.49z M286.51,52.89c-0.41-1.96-0.66-3.42-1.04-4.86
			c-0.1-0.39-0.62-0.98-0.9-0.95c-0.5,0.05-1.31,0.45-1.36,0.79c-0.24,1.69-0.46,3.42-0.28,5.09c0.06,0.56,1.33,1.32,2.08,1.37
			C285.53,54.37,286.11,53.31,286.51,52.89z M154.57,13.64c0.11,0.23,0.23,0.45,0.34,0.68c9.97-0.98,12.17-2.85,12.21-6.09
			c-1.33,0.82-2.81,1.96-4.47,2.71c-1.46,0.67-3.13,0.86-4.68,1.35C156.82,12.67,155.71,13.19,154.57,13.64z M142.22,23.43
			c-0.95,0.68-1.65,1.18-2.82,2.02c1.34,0.25,2.14,0.4,2.53,0.48c0.4,1.91,0.76,3.61,1.12,5.32c0.32,0.01,0.64,0.02,0.95,0.03
			c0.5-1.49,1.6-3.1,1.34-4.45C145.11,25.6,143.41,24.64,142.22,23.43z M120.47,9.32c0.14,0.24,0.41,1.08,0.98,1.49
			c0.24,0.17,1.16-0.5,1.72-0.87c0.4-0.27,0.76-0.65,1.04-1.04c0.38-0.53,1.09-1.47,0.94-1.64c-0.54-0.64-1.35-1.42-2.09-1.45
			C121.21,5.74,120.5,7.04,120.47,9.32z M338.58,11.34c-4.91-1.82-9.2-5.31-14.71-5.47C329.09,6.8,333.03,11.27,338.58,11.34z
			 M368.67,42.3c2.9-3.14,5.95-6.45,8.72-9.44C373.85,33.25,368.62,38.91,368.67,42.3z M427.25,45.11c-0.02,0-0.04,0-0.06,0
			c0-1.32,0.05-2.64-0.04-3.96c-0.02-0.29-0.46-0.74-0.76-0.78c-0.25-0.03-0.8,0.41-0.81,0.66c-0.08,2.47-0.11,4.94-0.05,7.4
			c0.01,0.32,0.59,0.63,0.9,0.94c0.27-0.35,0.74-0.68,0.77-1.05C427.32,47.27,427.25,46.19,427.25,45.11z M158.17,38.32
			c3.01,0,5.59,0,8.17,0C163.68,36.3,161.19,36.38,158.17,38.32z M368.42,44.63c-0.37,0.04-0.73,0.08-1.1,0.12
			c0.39,2.98,0.78,5.95,1.17,8.93C371.23,50.36,367.34,47.76,368.42,44.63z M9.26,12.16c0.53-0.09,1.06-0.17,1.58-0.26
			c-1.26-2.43-2.11-4.8,0.64-6.69c-2.6,0.13-3.3,1.83-3.43,3.47C7.95,9.81,8.82,11,9.26,12.16z M164.4,7.74
			c0.25-0.07,0.49-0.15,0.74-0.22c-0.46-0.9-0.72-2.09-1.45-2.62c-0.64-0.47-1.83-0.31-2.76-0.23c-0.31,0.03-0.79,0.66-0.79,1.01
			c0,0.3,0.54,0.72,0.92,0.87C162.14,7,163.28,7.35,164.4,7.74z M475.67,11.87c0.87-0.9,1.47-1.52,2.06-2.14
			c-0.7-0.67-1.41-1.34-2.11-2.01c-0.59,0.77-1.34,1.48-1.69,2.35C473.83,10.33,474.83,11.03,475.67,11.87z M8.22,28.59
			c-2.94,1.53-3.6,3.84-2.06,6.87C6.89,33.04,7.48,31.06,8.22,28.59z M137.78,9.65c-0.97-2.69-2.29-3.28-4.14-2.09
			c-0.31,0.2-0.68,0.6-0.68,0.91c0,0.31,0.41,0.85,0.69,0.88C134.96,9.53,136.3,9.56,137.78,9.65z M260.51,46.23
			c0,0.26,0,0.52-0.01,0.78c2.05,0,4.1,0,6.16,0c0-0.26-0.01-0.52-0.01-0.78C264.6,46.23,262.55,46.23,260.51,46.23z M18.21,47.52
			c0.05-0.32,0.11-0.63,0.16-0.95c-1.99-0.37-3.99-0.74-5.98-1.11c-0.06,0.3-0.11,0.59-0.17,0.89
			C13.93,48.12,16.22,47.11,18.21,47.52z M145.3,60.03c-1-0.7-1.65-1.45-2.02-1.34c-0.62,0.2-1.07,0.95-1.59,1.47
			c0.47,0.44,0.95,1.23,1.42,1.22C143.7,61.37,144.27,60.71,145.3,60.03z M374.81,5.12c-0.69,0.9-1.4,1.41-1.39,1.92
			c0.01,0.5,0.74,0.99,1.16,1.48c0.54-0.47,1.33-0.85,1.52-1.43C376.23,6.71,375.46,6.05,374.81,5.12z M195.4,7.08
			c0.59-1,1.2-1.57,1.17-2.09c-0.04-0.52-0.73-0.98-1.14-1.47c-0.56,0.48-1.47,0.9-1.57,1.46C193.78,5.47,194.63,6.1,195.4,7.08z
			 M151.71,51.04c-0.27-0.34-0.53-0.68-0.8-1.02c-0.73,0.53-1.5,1-2.12,1.64c-0.08,0.09,0.62,0.94,0.96,1.43
			C150.41,52.4,151.06,51.72,151.71,51.04z"/>
		<path class="st0" d="M558.23,11.62c-0.13,0.21-0.21,0.49-0.4,0.62c-2.05,1.47-4.36,2.69-6.08,4.47c-0.9,0.93-0.86,2.83-1.01,4.32
			c-0.02,0.18,1.55,0.37,2.23,0.79c1.29,0.81,2.52,1.74,3.69,2.72c0.95,0.79,1.65,1.96,2.7,2.55c3.8,2.14,5.35,4.88,4.88,9.18
			c-0.26,2.43-1.97,4.07-4.77,4.35c1.45-2.51,3.65-4.79,2.12-7.89c-1.37-2.76-3.23-4.81-6.65-3.94c-0.19-0.29-0.36-0.43-0.36-0.56
			c-0.03-2.16-0.6-4.01-3.04-4.48c-2.5-0.47-4.12,0.9-5.31,2.88c-0.55,0.92-0.75,2.12-1.47,2.84c-0.53,0.52-1.64,0.46-2.5,0.66
			c0.09-0.81-0.11-2.08,0.31-2.35c2.08-1.28,2.7-2.74,1.46-4.96c-0.17-0.3,0.49-1.1,0.83-1.62c1.19-1.81,0.64-3.98-1.52-5.88
			c-1.98-1.74-3.51-1.85-5.26-0.32c-0.27,0.23-0.35,0.67-0.63,1.23c2.82,0.43,6.59-0.73,6.39,3.86c-0.09,1.92-0.9,2.41-2.54,2.29
			c-0.09-1.39,0.33-3.18-0.37-3.95c-1.81-1.99-2.67,1.47-3.58,1.34c-1.05-1.47-1.75-2.45-2.44-3.43c-0.99,0.86-2,1.69-2.96,2.57
			c-0.95,0.87-1.85,1.8-2.77,2.7c-0.34-0.19-0.68-0.39-1.02-0.58c0.27-0.95,0.37-2,0.85-2.84c1.26-2.23,1.83-4.33,0.19-6.67
			c-1.51-2.15-2.34-2.37-4.61-0.82c-0.46,0.31-0.96,0.56-1.64,0.94c-2.04-4.69-5.99-5.52-10.23-4.73c-2.76,0.52-5.11,2.26-5.74,5.7
			c1.64-0.1,2.75-0.27,3.12-2.12c0.16-0.8,1.24-1.42,1.7-1.91c1.13,1.27,1.81,2.05,2.62,2.96c-1.21,0.34-2.52,0.42-3.46,1.05
			c-1.03,0.69-1.92,1.8-2.42,2.92c-0.2,0.45,0.79,2.06,1.25,2.06c1.29,0.01,2.58-0.54,4.28-0.97c0.53,0.79-0.11,1.69-1.25,2.42
			c-2.1,1.33-5.17,0.46-6.42-1.89c-0.61-1.15-1.03-2.4-1.67-3.91c-0.79,0.5-1.49,0.85-2.09,1.34c-4.22,3.45-11.18,1.58-12.95-3.49
			c-0.97-2.77,0.4-5.82,3.15-7.01c1.98-0.85,5.04,0.38,5.93,2.77c0.38,1.03,0.1,2.61-0.48,3.59c-0.45,0.77-1.81,1.4-2.76,1.37
			c-0.82-0.02-1.63-1.03-2.44-1.6c0.15-0.24,0.3-0.47,0.45-0.71c0.36,0.09,0.73,0.25,1.08,0.24c0.78-0.03,1.56-0.15,2.34-0.24
			c-0.35-1-0.43-2.44-1.13-2.87c-0.78-0.48-2.66-0.47-3.13,0.09c-1.18,1.43-2.09,3.2-0.8,5.22c2.24,3.51,8.1,3.81,11.15,0.5
			c0.39-0.43,0.8-0.86,1.1-1.35c3.11-5.15,7.75-7.49,13.62-6.51c2.18,0.36,4.11,2.17,6.38,3.44c3.32-2.55,5.9-1.66,7.3,3.06
			c0.35,1.17,0.65,2.36,1.17,4.27c0.43-1.36,0.67-2.05,0.87-2.77c1.25-4.42,3.42-5.8,8.02-5.28c0.71,0.08,1.67-0.19,2.19-0.66
			c2.14-1.92,4.42-2.43,7.11-1.28c0.53,0.23,1.34,0.24,1.87,0.02c3.75-1.62,5.96-0.62,7.11,3.19c0.19,0.62,0.78,1.26,1.36,1.59
			c4.09,2.34,5.43,5.24,4.36,9.73c-0.48,2-3.38,3.9-5.39,3.52c-2.56-0.48-5.32-3.27-4.77-5.26c0.33-1.19,1.59-2.16,2.56-3.08
			c0.1-0.1,1.43,0.67,1.69,1.26c0.46,1.02,1.18,2.38-0.65,3.03c-0.14-0.15-0.33-0.25-0.34-0.37c-0.03-0.67-0.02-1.33-0.02-2
			c-0.39,0.01-1.05-0.09-1.11,0.06c-0.27,0.63-0.57,1.37-0.47,2.01c0.31,1.99,1.64,2.72,3.6,2.55c2.19-0.19,3.37-1.48,3.49-3.51
			c0.17-2.86-1.16-5.17-3.54-6.7c-0.54-0.35-1.62,0.15-2.45,0.26c0.15-0.81,0.49-1.64,0.42-2.43c-0.17-1.77-1.11-2.94-3.07-2.87
			c-1.17,0.04-2.32,0.23-2.09,1.59c1.33,0.22,2.37,0.39,3.42,0.56c-0.36,0.95-0.72,1.89-1.17,3.08
			C556.5,11.62,557.37,11.62,558.23,11.62z M545.85,23.59c2.63-1.07,3.94-2.57,3.71-4.74c-0.22-1.99-0.8-4.03-1.64-5.86
			c-1.86-4.06-9.45-4.97-12.23-1.45c-0.57,0.73-0.31,2.1-0.44,3.18c0.73-0.16,1.59-0.13,2.15-0.52c2.12-1.46,4.69-1.46,7.09,0.2
			c2.13,1.46,2.64,3.31,1.81,6.12C546.07,21.36,546.04,22.28,545.85,23.59z M544.89,8.6c1.41,0.28,2.32,0.54,3.25,0.62
			c2.61,0.23,3.21,1.1,2.51,3.5c-0.19,0.65,0.04,1.43,0.08,2.14c0.79-0.45,1.87-0.71,2.3-1.38c1.18-1.84,0.61-3.76-1.24-5.19
			C549.3,6.38,547.48,6.33,544.89,8.6z"/>
		<path class="st0" d="M447.72,31.37c0.39-0.91,0.56-1.69,0.99-2.28c3.25-4.46,7.22-7.96,12.77-9.32c5.92-1.45,11.86-1.5,17.76-0.05
			c5.05,1.25,10.2,2.29,15.05,4.09c4.5,1.67,8.72,4,13.64,4.41c0.5,0.04,1.07,1.35,1.31,2.15c1.17,4.03,1.56,8.47,3.54,12.04
			c2.06,3.71,5.51,6.7,8.58,9.78c2.43,2.44,5.21,4.53,7.64,7.39c-2.65-0.93-5.43-1.61-7.92-2.86c-2.94-1.49-5.75-3.3-8.38-5.28
			c-4.52-3.4-9.77-4.33-15.16-4.84c-1.6-0.15-2.32-0.48-2.45-2.26c-0.55-7.44-5.92-16.55-15.2-18.41
			c-6.64-1.33-13.24-2.32-19.97-0.89c-3.8,0.81-7.32,2.2-9.95,5.23c-0.32,0.37-0.71,0.71-1.11,0.99
			C448.7,31.39,448.41,31.33,447.72,31.37z M500.25,29.54c0.89,0,1.79,0,2.68,0c0.06-0.33,0.12-0.66,0.18-0.98
			c-2.61-0.77-5.18-1.85-7.84-2.17c-1.15-0.14-3.11,0.99-3.58,2.05c-0.49,1.11,0.22,2.85,0.68,4.23c0.38,1.14,1.1,2.2,1.79,3.21
			c0.42,0.62,1.05,1.1,1.58,1.64c0.38,1.5,0.51,3.13,1.21,4.47c1.01,1.92,1.85,1.72,2.95-0.07c1.69-2.77-0.58-3.72-2.16-5.07
			c-0.67,0.24-1.37,0.49-2.06,0.74c0.76-1,0.93-1.82,0.07-3.06c-0.94-1.38-1.37-3.12-1.88-4.76c-0.11-0.35,0.49-1.33,0.64-1.3
			c1.94,0.3,3.86,0.73,5.79,1.13c-0.58-0.03-1.26-0.26-1.71-0.03c-1.01,0.5-2.22,1.04-2.71,1.92c-0.27,0.49,0.55,2,1.26,2.47
			c0.72,0.48,2.33,0.67,2.8,0.22c0.63-0.62,0.63-1.96,0.73-3C500.73,30.65,500.41,30.09,500.25,29.54z M512.41,47.48
			c-0.25,0.15-0.5,0.31-0.74,0.46c-0.53-0.85-1.7-1.92-1.5-2.52c0.91-2.7-0.14-5.06-0.87-7.48c-0.19-0.62-0.8-1.12-1.21-1.67
			c-0.21,1.62,0.19,2.94,0.24,4.28c0.17,4.53,0.05,4.6-4.42,3.66c-0.47-0.1-0.87-0.53-1.34-0.59c-0.56-0.06-1.15,0.12-1.73,0.19
			c-0.02,0.23-0.04,0.46-0.06,0.7c0.64,0.29,1.25,0.66,1.92,0.86c3.01,0.9,6.3,1.06,8.66,3.67c0.5,0.55,1.82,0.59,2.71,0.47
			c0.41-0.05,1.12-1.33,0.95-1.58c-0.72-1.11-1.71-2.05-2.6-3.05c-0.2,0.16-0.4,0.31-0.6,0.47
			C512.02,46.05,512.22,46.77,512.41,47.48z M504.12,35.39c0.23,0.28,0.45,0.57,0.68,0.85c0.98-0.89,2.4-1.62,2.8-2.72
			c0.3-0.82-0.47-2.74-1.23-3.06c-1.8-0.74-2.73,0.76-3.48,2.27c-0.42,0.84-1.23,1.48-1.72,2.3c-0.28,0.45-0.27,1.08-0.39,1.63
			c0.49-0.06,1.02-0.02,1.46-0.21C502.9,36.18,503.5,35.76,504.12,35.39z M504.62,36.82c-2.74,0.56-2.61,2.42-2.75,3.83
			c-0.17,1.67,1.45,2.56,2.61,2.11c1.11-0.43,2.48-2,2.46-3.05C506.92,38.66,505.33,37.63,504.62,36.82z M490.56,28.55
			c-0.48-0.68-0.72-0.99-0.93-1.32c-0.36-0.57-0.71-1.14-1.07-1.71c0.73-0.01,1.47-0.02,2.2-0.02c0.63,0,1.25,0,2.35,0
			c-1.86-2.19-3.79-2.47-5.68-1.62c-0.62,0.28-1.21,2.09-0.88,2.7C487.21,27.76,488.23,29.16,490.56,28.55z M485.76,23.21
			c-0.03-0.34-0.05-0.68-0.08-1.02c-1.4,0.17-2.81,0.33-4.21,0.5c0.44,0.86,0.76,1.81,1.36,2.53c0.28,0.33,1.09,0.23,2.1,0.39
			c-0.49-0.87-0.71-1.27-0.94-1.67C484.59,23.69,485.18,23.45,485.76,23.21z M479.48,21.31c-0.67-0.8-4.39-1.09-5.01,0.03
			c-0.22,0.41-0.18,1.21,0.09,1.55c0.27,0.34,1.11,0.59,1.48,0.41C477.26,22.74,478.37,21.97,479.48,21.31z"/>
		<path class="st0" d="M557.05,71.19c-3.15,4.77-7.82,3.51-12.22,3.17c-2.85-0.22-4.32-1.73-4.78-4.54
			c-0.45-2.73,1.35-4.14,4.13-3.31c-0.53,0.73-1.08,1.48-1.62,2.23c1.08,0.46,2.16,1.32,3.23,1.29c2.15-0.06,4.35-0.54,5.01-3.15
			c0.81-3.2,1.41-6.45,2.44-9.58c0.46-1.41,1.69-2.58,2.65-3.79c0.53-0.66,1.24-1.18,1.95-1.84c3.32,0.17,4.91-0.6,5.06-2.73
			c0.13-1.82-0.62-3.31-2.52-3.76c-2.3-0.54-3.33,0.82-4.64,5.46c-0.19-0.6-0.48-1.19-0.55-1.8c-0.24-2.2,1.75-4.69,4.22-5.36
			c2.14-0.58,4.06,0.67,5.08,3.31c1.05,2.7,0.59,4.17-1.97,5.56c-0.96,0.52-1.86,1.09-0.64,1.87c4.14,2.64,2.82,6.14,1.8,9.64
			c-0.32,1.11-0.87,2.2-0.94,3.32c-0.04,0.61,0.69,1.28,1.07,1.92c0.41-0.52,0.87-1.02,1.23-1.58c0.39-0.6,0.7-1.26,1.05-1.9
			c0.42,0.71,1.33,1.55,1.18,2.1c-0.55,1.99-1,4.98-2.35,5.55c-1.74,0.73-4.33-0.48-6.53-0.94
			C557.98,72.25,557.66,71.74,557.05,71.19z M551.02,72.65c0.13,0.14,0.25,0.28,0.38,0.43c0.61-0.37,1.21-0.76,1.84-1.1
			c3.75-2.05,4.43-3.37,3.92-7.56c-0.09-0.73-0.19-1.51-0.02-2.19c0.11-0.44,0.7-1.04,1.1-1.06c0.4-0.02,1.13,0.53,1.21,0.93
			c0.17,0.85,0.02,1.77-0.01,2.66c-0.07,1.72-0.24,3.43-0.18,5.14c0.02,0.43,0.76,0.83,1.17,1.24c0.21-0.48,0.73-1.09,0.58-1.43
			c-1.02-2.45,0.29-4.42,1.04-6.58c0.52-1.51,0.69-3.25,0.54-4.84c-0.23-2.39-2.15-4.09-3.98-3.99c-2.16,0.11-4.19,2.32-4.42,4.59
			c-0.32,3.1-0.76,6.18-1.16,9.32c0.2,0.03,0.71,0.11,1.87,0.3C553.38,70.13,552.2,71.39,551.02,72.65z"/>
		<path class="st0" d="M554.17,35.42c0.31,1.33,0.42,2.34,0.85,3.18c0.09,0.18,1.94-0.1,2.05-0.47c0.4-1.23,0.91-2.85,0.42-3.84
			c-0.93-1.85-2.94-2.36-4.98-1.8c-1.51,0.42-3.01,0.96-4.42,1.63c-4.63,2.21-9.01,2.19-12.81-3.63c-0.12-0.18-0.37-0.28-0.67-0.5
			c-2.04,3.54-4.05,7.01-6.22,10.77c0.12-1.37-0.08-2.81,0.43-3.93c0.81-1.77,2-3.4,3.23-4.94c0.9-1.14,1.83-2.4,0.45-3.35
			c-0.61-0.42-2.58,0.25-3.28,1.01c-3.45,3.76-3.32,10.44-0.11,14.35c1.09,1.32,1.73,3,2.66,4.46c0.94,1.47,1.98,2.88,3.28,4.01
			c-1.69-0.31-4.57-2.43-6.76-5.76c-5.1-7.76-5.13-9.97-0.13-19.55c-0.7-0.25-1.35-0.61-2.04-0.71c-4.57-0.66-6.12-3.89-7.05-7.85
			c-0.51-2.17-1.43-4.24-2.17-6.39c2.33,0.96,3.11,3.13,3.38,5.5c0.69,6.08,5.49,9.39,11.36,7.73c1.52-0.43,3.05-0.82,4.82-1.3
			c0,0.38,0.07,0.91-0.01,1.42c-0.78,4.69,3.79,8.96,8.49,7.82c1.43-0.35,2.73-1.19,4.14-1.59c1.71-0.49,3.57-1.25,5.22-0.99
			c1.6,0.25,3.81,1.3,4.36,2.59c0.96,2.27,1.32,5.12-1.1,7.07c-0.59,0.48-2.19,0.7-2.51,0.34c-1.07-1.23-1.79-2.76-2.51-4.24
			C552.5,36.38,553.76,35.67,554.17,35.42z"/>
		<path class="st0" d="M478.19,29.78c10.12,3.51,12.68,11.84,13.15,21.7c1.04-0.18,1.81-0.4,2.59-0.43c1.35-0.05,2.71,0,4.07,0.06
			c0.32,0.01,0.64,0.32,0.94,0.29c6.64-0.56,11.43,3.5,16.42,6.76c6.25,4.07,12.98,6.12,20.39,6.15c4.82,0.02,8.9-2.04,12.86-4.56
			c-0.39,1.56-3.29,4.15-5.45,4.57c-3.63,0.71-7.29,1.32-10.97,1.74c-1.14,0.13-2.36-0.57-3.56-0.72
			c-7.03-0.87-12.54-4.89-18.28-8.53c-2.77-1.75-5.81-3.21-8.92-4.24c-4.49-1.49-8.81,0-13.45,1.94c0-1.07-0.09-1.89,0.01-2.7
			c0.8-6.06-0.04-11.76-4.15-16.54c-1.3-1.52-3.11-2.6-4.7-3.88c-0.48-0.39-1-0.73-1.5-1.09C477.84,30.13,478.02,29.96,478.19,29.78
			z"/>
		<path class="st0" d="M552.89,43.41c-3.44-1.98-6.78-4.24-10.69-2.25c-3.73,1.89-5.57,4.85-3.7,9.46
			c-2.29-1.18-2.92-3.39-2.14-5.75c1.4-4.27,5.47-6.8,10.13-6.31C550.63,39.01,552.64,40.39,552.89,43.41z"/>
		<path class="st0" d="M524.9,22.8c-4.55-3.09-2.84-8.72-6.26-11.74c2.34-0.03,3.03,1.72,3.31,3.27c0.46,2.57,0.96,5,2.93,6.9
			C525.04,21.37,524.9,21.82,524.9,22.8z"/>
		<path class="st0" d="M19.65,62.34c0.37,1.61,0.74,3.21,1.17,5.09c-1.18,0.41-2.53-0.07-3.05-1.79c-0.47-1.56-0.5-3.23,1.93-3.24
			C19.71,62.4,19.65,62.34,19.65,62.34z"/>
		<path class="st0" d="M52.92,11.16c0.82,0.39,1.85,0.59,2.41,1.22c0.48,0.53,0.42,1.54,0.6,2.34c-0.24,0.07-0.47,0.13-0.71,0.2
			c-0.89-0.98-1.79-1.96-2.68-2.93C52.66,11.7,52.79,11.43,52.92,11.16z"/>
		<path class="st0" d="M503.37,66.58c2.41,1.66,2.55,2.86,0.43,4.86C503.65,69.68,503.52,68.26,503.37,66.58z"/>
		<path class="st0" d="M34.5,54.02c3.55-1.72,7.3-3.12,10.61-5.23c6.52-4.15,10.73-10.03,11.41-17.91c0.15-1.75-1.2-3.99-0.49-5.22
			c0.59-1.02,3.31-0.63,4.89-1.32c5.07-2.21,9.97-4.8,15.08-6.92c9.47-3.92,19.04-5.87,29.16-1.85c5.67,2.25,9.73,6.26,13.77,10.45
			c0.18,0.19,0.17,0.57,0.03,1.24c-5.02-5.03-11.01-7.36-17.98-7.2c-6.79,0.15-13.31,1.72-18.85,5.5c-5.77,3.94-8.6,10.1-9.83,16.86
			c-8.98,0.57-16.73,3.96-24.05,8.73c-1.87,1.22-4.3,1.58-6.48,2.3c-1.09,0.36-2.18,0.79-3.3,0.92c-1.34,0.16-2.71,0.04-4.06,0.04
			C34.43,54.29,34.47,54.16,34.5,54.02z M72.41,35.51c1.73-2.75,2.73-5.23,2.32-8.24c-0.49-3.61-3.6-5.62-7-4.24
			c-1,0.41-2.02,0.82-2.91,1.41c-0.48,0.32-0.69,1.04-1.01,1.58c0.66,0.1,1.37,0.41,1.96,0.25c1.51-0.4,2.93-1.16,4.45-1.46
			c0.69-0.14,1.94,0.24,2.23,0.76c1.19,2.14,0.02,6.1-1.99,7.56c-0.24,0.17-0.35,0.51-0.66,0.98C70.7,34.6,71.46,35,72.41,35.51z
			 M65.41,41.12c-0.48-0.52-0.97-1.42-1.31-1.37c-2.05,0.35-4.06,0.92-6.29,1.46c-0.14-1.26-0.27-2.51-0.43-4
			c-1.37,1.75-2.61,3.03-3.45,4.54c-0.47,0.84-0.42,2.08-0.26,3.08c0.05,0.33,1.24,0.72,1.85,0.65c0.67-0.08,1.28-0.66,1.92-1.02
			c-0.1-0.15-0.21-0.3-0.31-0.45c-0.75,0.11-1.5,0.23-2.86,0.43c0.58-1.34,0.97-2.21,1.37-3.14C58.88,43.44,59.21,43.42,65.41,41.12
			z M70.58,38.49c0.05-2.91-1.44-3.7-2.92-3.48c-0.95,0.14-2.54,1.8-2.38,2.38c0.33,1.19,1.52,2.77,2.58,2.95
			C68.77,40.51,69.97,38.95,70.58,38.49z M57.56,34.99c0.48,2.15,1.88,3.71,3.42,3.35c0.9-0.21,2.34-1.8,2.26-1.94
			c-0.88-1.34-2.03-2.51-3.1-3.73C59.28,33.45,58.42,34.22,57.56,34.99z M72.15,29.64c-1.44-1.09-2.32-2.23-3.38-2.44
			c-1.3-0.26-3.46,0.19-3,1.89c0.36,1.33,2.27,2.33,3.67,3.18C69.65,32.4,70.84,30.92,72.15,29.64z M79.6,24.25
			c1.62,1.1,2.36,0.47,2.95-0.73c1.01-2.03,0.62-4.45-0.98-5.26c-1.73-0.88-3.41-1.01-4.95,1.28c1.09,0.1,1.85,0.14,2.6,0.25
			c0.74,0.11,1.48,0.29,2.21,0.44c-0.19,0.83-0.3,1.69-0.6,2.47C80.64,23.2,80.15,23.58,79.6,24.25z M61.27,32.34
			c1.25-1.36,2.82-2.53,2.63-2.97c-0.47-1.13-1.59-2.25-2.73-2.72c-0.46-0.19-2.39,1.43-2.31,2.05
			C59.02,29.82,60.18,30.81,61.27,32.34z M76.43,28.33c2.43-2.25,2.85-4.52,1.63-6.09c-1.57-2.01-4.13-2.44-6.61-0.74
			c0.73,0.39,1.54,0.71,2.3,0.6c2.52-0.37,3.65,0.82,3.09,3.36C76.63,26.4,76.57,27.37,76.43,28.33z M86.71,18
			c-0.62,1.25-1.17,2.35-1.71,3.45c0.2,0.19,0.4,0.39,0.6,0.58c1.01-0.9,2.26-1.65,2.93-2.76c0.29-0.47-0.42-2.22-1.01-2.42
			c-1.37-0.46-2.94-0.34-4.43-0.45c-0.03,0.39-0.06,0.79-0.09,1.18C84.09,17.7,85.17,17.82,86.71,18z M90.25,19.11
			c1.99,0.79,3.23,0.27,3.57-1.13c0.18-0.75-0.49-2.03-1.18-2.58c-1.09-0.88-2.36-0.7-3.47,0.71c1.31,0.21,2.34,0.38,4,0.65
			C91.9,17.77,91.25,18.3,90.25,19.11z M67.11,33.46c-0.99-0.81-1.51-1.46-2.17-1.66c-0.31-0.09-0.88,0.69-1.33,1.07
			c0.49,0.52,0.9,1.21,1.51,1.48C65.46,34.5,66.12,33.93,67.11,33.46z"/>
		<path class="st0" d="M227.6,22.6c-0.42,1.89-0.86,3.55-1.15,5.25c-0.8,4.72,1.14,8.78,3.33,12.71c2.44,4.37,4.17,9.29,8.52,12.32
			c1.94,1.35,4.13,2.35,6.22,3.48c0.69,0.37,1.43,0.65,2.14,0.96c-0.11,0.33-0.21,0.66-0.32,0.99c-2.3-0.73-4.92-1-6.83-2.3
			c-2.89-1.98-5.64-4.39-7.81-7.13c-4.32-5.45-9.93-7.76-16.63-7.93c-1.25-0.03-1.63-0.24-1.89-1.54
			c-2.12-10.57-9.83-18.91-21.28-20.82c-8.23-1.37-15.36,1.04-21.97,5.46c-1.71,1.15-2.84,3.17-4.21,4.82
			c-0.54,0.65-1,1.36-1.5,2.04c-0.24-0.12-0.48-0.24-0.73-0.35c0.49-1.39,0.79-2.89,1.52-4.15c4.75-8.24,11.72-13.74,21.34-14.43
			c8.2-0.59,16.47,0.02,23.56,5.19c1.33,0.97,2.74,1.81,4.06,2.8c3.84,2.87,7.92,4.41,12.71,2.55
			C226.88,22.42,227.15,22.54,227.6,22.6z M219.5,26.19c0-0.35,0.17-1.33-0.03-1.41c-2.22-0.86-4.44-1.95-6.75-2.23
			c-2.71-0.33-4.42,2.47-3.21,4.91c0.77,1.54,1.82,2.95,2.84,4.34c0.25,0.34,0.92,0.39,1.4,0.57c-0.03-0.49,0.09-1.06-0.11-1.47
			c-0.78-1.67-1.8-3.26-2.42-4.98c-0.18-0.49,0.82-1.98,1-1.94C214.58,24.57,216.88,25.35,219.5,26.19z M215.69,24.96
			c-1.01,1.47-2.25,2.51-2.08,3.21c0.24,1,1.62,2.54,2.32,2.44c1.08-0.15,2-1.48,2.99-2.31C218.03,27.38,217.14,26.45,215.69,24.96z
			 M211.12,21.1c0.13-0.41,0.25-0.82,0.38-1.24c-1.36-0.45-2.77-1.32-4.06-1.17c-0.74,0.08-1.74,1.77-1.84,2.81
			c-0.16,1.58,0.72,2.91,2.99,3.34c-0.38-1.54-0.68-2.77-1.04-4.25C208.92,20.79,210.02,20.94,211.12,21.1z M206.51,17.34
			c-2.31-2.43-5.2-2.05-5.65,0.6c-0.15,0.87,1.08,2.05,1.84,2.95c0.23,0.28,0.99,0.11,1.51,0.15c-0.27-0.85-0.54-1.7-0.8-2.56
			c-0.04-0.14,0.01-0.31,0.04-0.7C204.35,17.66,205.27,17.53,206.51,17.34z M226.09,39.6c-1.5-0.48-2.71-0.9-3.94-1.24
			c-1.04-0.29-2.49-1.83-2.85,0.93c1.64,0.62,3.22,1.5,4.89,1.72c0.94,0.12,2.3-0.63,2.94-1.42c0.35-0.43-0.4-1.75-0.65-2.67
			c-0.25,0.08-0.51,0.17-0.76,0.25C225.82,37.84,225.92,38.51,226.09,39.6z M217.49,32.43c-0.34-0.03-0.68-0.06-1.01-0.09
			c-0.64,0.89-1.62,1.71-1.84,2.7c-0.33,1.48,0.82,2.52,2.2,2.24c0.84-0.17,1.92-1.35,2.05-2.21
			C219,34.28,217.99,33.32,217.49,32.43z M225.7,34.45c-1.16-1.03-1.9-1.69-2.64-2.35c-0.79,0.97-1.82,1.85-2.23,2.96
			c-0.14,0.38,1.51,2.02,1.95,1.88C223.76,36.62,224.5,35.55,225.7,34.45z M225.35,28.13c-1.08-0.89-1.79-1.91-2.36-1.83
			c-0.72,0.1-1.92,1.2-1.83,1.65c0.17,0.84,1.12,1.53,1.74,2.28C223.56,29.66,224.22,29.1,225.35,28.13z M195.12,14.29
			c-1.77-0.63-3.86-1.23-4.29,0.84c-0.47,2.22,1.89,1.54,3.44,2.35c-0.35-1-0.54-1.57-0.74-2.15
			C194.08,14.96,194.6,14.63,195.12,14.29z M200.07,14.75c-1.41-0.95-2.57-0.64-3.34,0.92c-0.66,1.34-0.32,2.33,0.91,2.65
			C198.49,17.08,199.19,16.05,200.07,14.75z M187.42,16.53c0.3-0.02,0.6-0.05,0.91-0.07c0.39-0.91,0.78-1.82,1.17-2.73
			c-0.17-0.2-0.34-0.4-0.5-0.6c-0.79,0.37-1.87,0.56-2.26,1.18C186.46,14.74,187.15,15.77,187.42,16.53z M181.04,17.19
			c-0.8-0.64-1.36-1.3-1.57-1.21c-0.76,0.35-1.4,0.95-2.09,1.45c0.46,0.35,0.97,1.04,1.38,0.98
			C179.43,18.34,180.03,17.77,181.04,17.19z M185.33,15.89c-0.93-0.82-1.41-1.59-1.91-1.59c-0.56-0.01-1.14,0.67-1.7,1.04
			c0.56,0.48,1.07,1.11,1.72,1.37C183.78,16.85,184.39,16.33,185.33,15.89z"/>
		<path class="st0" d="M224.3,49.4c-3.43-1.24-6.47-2.33-9.34-3.36C216.9,44.83,222.56,46.55,224.3,49.4z"/>
		<path class="st0" d="M403.83,32.97c-0.84-0.75-1.36-1.04-1.64-1.48c-3.96-6.25-10.15-8.37-17.03-8.61
			c-4.85-0.17-9.92-0.22-14.55,0.97c-6.38,1.63-11.91,5.29-14.86,11.52c-1.13,2.38-1.2,5.25-1.79,8.09
			c-6.29,0.26-10.57,4.28-15.15,8.24c-3.82,3.3-8.22,6.23-13.65,6.59c-2.73,0.18-5.47,0.39-8.2,0.37c-0.99-0.01-1.97-0.65-2.95-1
			c0.05-0.22,0.11-0.45,0.16-0.67c0.28-0.11,0.58-0.33,0.84-0.3c6.92,0.92,12.28-2.13,16.9-6.76c3.04-3.04,5.63-6.42,7.31-10.5
			c1.3-3.17,1.36-6.23,0.62-9.44c-0.21-0.88-0.39-1.77-0.56-2.67c-0.26-1.3,0.32-1.89,1.61-1.82c5.16,0.28,9.3-2.67,13.88-4.26
			c5.78-2,11.46-4.46,17.4-5.76c6.45-1.41,12.97-0.15,18.89,2.81c5.49,2.74,9.41,7.26,12.38,12.58
			C403.68,31.29,403.64,31.88,403.83,32.97z M347.08,26.57c-0.04,0.27-0.09,0.53-0.13,0.8c0.56,0.47,1.19,1.41,1.66,1.33
			c1.54-0.24,3.01-0.86,4.52-1.31c0.59-0.18,1.19-0.3,1.78-0.44c0.12,0.6,0.36,1.21,0.33,1.81c-0.03,0.55-0.46,1.07-0.51,1.62
			c-0.03,0.31,0.27,0.75,0.55,0.97c0.15,0.12,0.78-0.04,0.83-0.2c0.49-1.36,1.37-2.82,1.17-4.09c-0.13-0.84-1.91-2.06-2.88-2
			C351.94,25.24,349.52,26.03,347.08,26.57z M344.63,34.38c1.15-1.46,2.57-2.52,2.42-3.26c-0.2-0.97-1.52-2.15-2.56-2.41
			c-1.21-0.3-2.65,0.61-2.23,2.18C342.55,31.99,343.59,32.9,344.63,34.38z M340.82,40.46c-1.65,1.59-1.6,2.9-0.61,4.24
			c0.99,1.34,2.16,1.26,3.43,0.33c0.52-0.39,1.23-0.55,1.69-0.99c0.46-0.43,0.73-1.07,1.08-1.62c-0.8-0.08-1.67-0.4-2.37-0.18
			c-0.74,0.24-1.31,0.99-2.21,1.73C341.46,42.67,341.2,41.79,340.82,40.46z M359.11,27.02c0.31,0.17,0.63,0.34,0.94,0.51
			c0.79-1.15,1.84-2.23,2.23-3.5c0.15-0.48-1.09-1.76-1.93-2.1c-1.81-0.73-3.46-0.18-5.11,1.84c1.85-0.09,3.18-0.15,4.66-0.22
			C359.58,24.96,359.34,25.99,359.11,27.02z M349.34,42.18c0.35-0.01,0.7-0.01,1.05-0.02c0.63-0.91,1.85-1.89,1.74-2.71
			c-0.12-0.95-1.4-1.76-2.18-2.62c-0.83,0.89-2.1,1.68-2.34,2.7C347.45,40.25,348.71,41.28,349.34,42.18z M354.79,32.66
			c-1.8-1.08-2.86-1.89-4.06-2.32c-0.33-0.12-1.62,1.27-1.54,1.41c0.71,1.16,1.55,2.29,2.57,3.17
			C351.91,35.05,353.22,33.85,354.79,32.66z M342.84,40.5c0.32,0.03,0.64,0.06,0.96,0.1c0.67-0.98,1.73-1.92,1.87-2.97
			c0.08-0.61-1.49-2.1-2.01-1.97c-0.92,0.23-2.05,1.3-2.24,2.2C341.26,38.6,342.32,39.61,342.84,40.5z M361.76,20.67
			c0.73,0.11,0.97,0.14,1.2,0.17c0.84,0.12,1.67,0.24,2.51,0.37c-0.37,0.73-0.76,1.45-1.11,2.19c-0.19,0.4-0.31,0.83-0.53,1.45
			c2.21-0.19,3.24-1.44,3.62-3.1c0.12-0.51-0.61-1.55-1.2-1.83C364.86,19.25,363.33,18.88,361.76,20.67z M369.94,22.14
			c1.02-0.74,2.12-1.41,3.01-2.29c0.19-0.19-0.24-1.54-0.57-1.63c-1.42-0.36-2.92-0.45-4.38-0.63c-0.02,0.23-0.03,0.45-0.05,0.68
			C371.63,18.9,371.63,18.9,369.94,22.14z M375.02,20.22c0.04,0.23,0.09,0.46,0.13,0.69c0.97-0.52,2.06-0.9,2.85-1.62
			c0.27-0.24-0.02-1.76-0.37-1.9c-1.1-0.44-2.36-0.5-3.56-0.7c-0.01,0.18-0.02,0.36-0.03,0.53c0.76,0.32,1.52,0.65,2.29,0.97
			C375.89,18.88,375.46,19.55,375.02,20.22z M388.98,21.47c-0.25-2.05-1.82-3.28-3.26-2.73c-0.39,0.15-0.93,0.67-0.91,0.98
			c0.04,0.46,0.43,1.17,0.82,1.28C386.68,21.29,387.81,21.32,388.98,21.47z M338.75,47.3c-0.13-0.76-0.25-1.48-0.38-2.2
			c-0.28-0.06-0.55-0.11-0.83-0.17c-0.23,1.02-0.45,2.04-0.68,3.06c1.05,0.13,2.1,0.31,3.16,0.36c0.18,0.01,0.39-0.54,0.73-1.04
			C339.92,47.3,339.38,47.3,338.75,47.3z M380.35,20.04c0.09,0.23,0.19,0.45,0.28,0.68c0.87-0.41,1.81-0.73,2.58-1.28
			c0.19-0.14,0.04-1.3-0.27-1.49c-0.89-0.53-1.93-0.81-2.91-1.18c-0.08,0.22-0.15,0.45-0.23,0.67c0.61,0.47,1.22,0.94,2,1.54
			C381.2,19.42,380.77,19.73,380.35,20.04z"/>
		<path class="st0" d="M391.83,26.22c4.67,0.71,6.72,4.47,9.1,7.87C397.9,31.47,394.87,28.85,391.83,26.22z"/>
		<path class="st0" d="M22.06,28.36c3.22-0.16,4.99-1.65,4.8-5.44c1.49,2.25,1.33,3.16-0.7,4.78
			C25.01,28.62,23.73,29.78,22.06,28.36z"/>
		<path class="st0" d="M426.06,25.32c-1.03-2.17-2.28-4.28-3.04-6.54c-0.72-2.17,0.5-3.7,2.78-4.02c2.31-0.33,3.16,1.38,3,3.02
			c-0.25,2.58-1.14,5.1-1.76,7.64C426.72,25.37,426.39,25.34,426.06,25.32z M425.46,21.37c0.22-0.01,0.44-0.01,0.66-0.02
			c0.25-0.97,0.75-1.97,0.67-2.91c-0.05-0.54-1.05-1-1.63-1.49c-0.26,0.61-0.79,1.26-0.71,1.83
			C424.57,19.67,425.1,20.51,425.46,21.37z"/>
		<path class="st0" d="M278.44,21.95c3.4,1.66,6.12,3.73,4.36,8.18C283.26,26.35,280.32,24.47,278.44,21.95z"/>
		<path class="st0" d="M288.33,24.51c1.13-1.52,2.26-3.04,3.37-4.53c1.59,1.89,0.38,3.58-3.42,4.49
			C288.27,24.47,288.33,24.51,288.33,24.51z"/>
		<path class="st0" d="M274.91,31.88c-0.68-1.29-1.35-2.59-2.03-3.88c0.25-0.15,0.5-0.3,0.75-0.46c0.81,1.24,1.62,2.49,2.43,3.73
			C275.67,31.47,275.29,31.68,274.91,31.88z"/>
		<path class="st0" d="M448.1,48.57c1.28-0.78,3.88,0.83,3.91-1.99c0-0.3-1.48-0.61-2.91-1.16c0.91-0.41,1.78-1.17,2.43-1.01
			c0.96,0.23,2.57,1.45,2.49,1.66c-0.63,1.49-1.37,3.14-2.59,4.08c-0.64,0.49-2.32-0.36-3.53-0.61
			C447.96,49.21,448.03,48.89,448.1,48.57z"/>
		<path class="st0" d="M487.85,61.32c1.21-1.23,2.33-2.57,3.68-3.62c0.46-0.36,1.55-0.05,2.28,0.17c0.23,0.07,0.25,0.83,0.37,1.28
			c-0.65,0.06-1.32,0.04-1.93,0.21c-0.67,0.19-1.35,0.48-1.91,0.88c-0.67,0.49-1.22,1.14-1.83,1.72
			C488.29,61.75,488.07,61.53,487.85,61.32z"/>
		<path class="st0" d="M469.82,64.67c0.34,1.36,0.68,2.71,1.03,4.07C468.95,67.83,468.8,66.42,469.82,64.67z"/>
		<path class="st0" d="M84.81,65.42c-0.94-1.38-1.87-2.77-2.83-4.14c-0.83-1.19-1.7-2.35-2.74-3.78c0.21,0.03,1.15-0.12,1.43,0.24
			c1.78,2.28,3.41,4.66,5.08,7.02C85.44,64.98,85.12,65.2,84.81,65.42z"/>
		<path class="st0" d="M312.2,7.99c-1.8,1-3.9,2.15-5.93,3.28C306.36,9.22,309.59,7.53,312.2,7.99z"/>
		<path class="st0" d="M347.76,57.52c1.64-0.14,3.29-0.27,4.93-0.41c0.02,0.25,0.05,0.49,0.07,0.74c-1.62,0.17-3.24,0.34-4.86,0.5
			C347.85,58.08,347.81,57.8,347.76,57.52z"/>
		<path class="st0" d="M257.29,39.4c1.07,0.4,2.15,0.79,3.22,1.19c-0.1,0.25-0.19,0.5-0.29,0.76c-1.46,0.54-2.69,0.47-3.33-1.23
			C257.02,39.87,257.16,39.64,257.29,39.4z"/>
		<path class="st0" d="M6.96,43.78c0.74,0.99,1.58,1.63,1.51,2.14c-0.07,0.53-0.99,1.21-1.61,1.3c-0.41,0.06-1.37-0.83-1.35-1.26
			C5.54,45.35,6.25,44.77,6.96,43.78z"/>
		<path class="st0" d="M555.55,59.48c-0.18-2.64,0.71-3.55,3.49-3.11C557.82,57.46,556.61,58.54,555.55,59.48z"/>
	</g>
</g>
</svg>
