<svg width="32" height="34" viewBox="0 0 32 34" fill="none" xmlns="http://www.w3.org/2000/svg">
<path d="M0.331193 21.4908C0.0788555 21.822 0 22.3425 0 22.7841C0 23.3991 0.220795 23.4938 0.788555 23.273C1.64019 22.926 2.49183 22.5948 3.34347 22.2794C4.10049 22.0113 4.21088 22.1217 4.27397 22.9102C4.32128 23.5253 4.21088 24.2981 4.54208 24.7239C6.00879 26.6795 7.52281 28.6194 10.3301 28.6351C10.9609 28.6351 11.576 28.7929 12.2068 28.8086C12.7273 28.8244 12.9954 29.1083 13.3108 29.4868C14.1467 30.5119 14.6671 31.679 15.0929 32.9091C15.1718 33.1299 15.4399 33.3034 15.6292 33.4926C15.7711 33.3034 15.9446 33.1457 16.0392 32.9406C16.607 31.679 17.1274 30.4015 17.7267 29.1556C18.2314 28.0989 18.4364 28.0201 19.6035 28.2093C20.5971 28.3828 21.5118 28.3039 22.395 27.7835C22.9312 27.4681 23.5147 27.2315 24.0667 26.9319C24.9183 26.4745 25.7384 26.0171 26.2431 25.1182C26.6374 24.4243 27.1736 23.8407 27.6467 23.1941C28.4511 22.1059 28.6876 20.86 28.6561 19.5352C28.6561 19.1567 28.6561 18.7624 28.6561 18.3839C29.0977 18.4628 29.5393 18.5259 29.9651 18.652C30.1543 18.7151 30.3278 18.8571 30.5013 18.9832C31.3529 19.5825 31.7472 19.4564 31.9049 18.4155C32.1573 16.7595 31.9838 15.1982 30.4382 14.173C30.1228 13.968 29.8231 13.6999 29.6812 13.3372C29.5235 12.9114 29.6812 12.5959 29.7285 12.1859C29.7916 11.5393 29.7758 10.798 29.7127 10.1356C29.6654 9.55211 29.4446 9.00012 29.3342 8.43237C29.2396 7.92769 28.9557 7.50187 28.6403 7.10759C28.4195 6.83948 28.1514 6.60292 27.8991 6.38212C27.6467 6.16133 27.4732 6.03516 27.1578 5.92476C26.8582 5.81436 26.5585 5.70396 26.2746 5.60934C25.6753 5.38854 25.0918 5.16775 24.5083 4.91541C24.0036 4.69462 24.0194 3.79566 24.5083 3.25944C24.8395 2.89671 25.2811 2.6286 25.6596 2.29741C26.4324 1.60348 26.3535 1.17766 25.4072 0.909552C23.8617 0.483732 22.3161 0.389106 21.0702 1.66656C20.5497 2.18701 20.187 2.10816 19.6981 1.65079C19.2565 1.22497 18.7518 0.830696 18.2472 0.467961C17.6479 0.0263704 16.9539 -0.0682562 16.2127 0.0421414C15.6449 0.136768 15.0456 0.136768 14.4621 0.215623C14.052 0.278708 13.6578 0.373334 13.2635 0.515274C12.6326 0.720299 12.0018 0.925323 11.434 1.24074C10.8978 1.5404 10.3932 1.9189 9.99888 2.37626C9.16301 3.35407 8.97375 3.41716 7.77515 2.94402C7.31779 2.77054 6.79734 2.72323 6.30844 2.66014C5.74068 2.59706 5.18869 2.6286 4.6367 2.67591C4.49476 2.67591 4.33705 2.67591 4.21088 2.739C3.94277 2.83363 3.73775 3.02288 3.56427 3.24367C3.42233 3.41716 3.31193 3.5591 3.37501 3.79566C3.46964 4.12686 3.89546 4.1584 4.17934 4.22148C4.98367 4.39496 5.53565 4.80501 5.5672 5.73551C5.5672 6.09824 5.70914 6.47675 5.85108 6.82371C6.15073 7.47033 5.92993 7.84883 5.31486 8.10117C4.11626 8.62162 3.40656 9.45749 2.80726 10.7034C1.9083 12.6117 2.00293 14.52 2.08178 16.4756C2.08178 16.7753 2.28681 17.1065 2.49183 17.3588C3.13845 18.242 3.09114 18.3208 2.31835 19.0936C1.59288 19.8349 0.930495 20.6392 0.331193 21.4908ZM13.1846 25.5913C11.9545 25.3232 11.3394 24.44 10.5666 23.6357C10.1408 23.1941 9.54151 22.9418 9.02107 22.5948C8.64256 22.3425 8.27983 22.0744 7.88555 21.8536C7.6963 21.7432 7.30202 21.5855 7.2547 21.6485C7.08122 21.8851 6.86043 22.2321 6.89197 22.5002C7.01814 23.3203 7.64898 23.8407 8.34291 24.1088C9.4942 24.5662 10.5036 25.0866 11.2133 26.1906C11.4498 26.5534 12.2226 26.5849 12.8534 26.7899C11.8283 27.3892 10.8347 27.5627 9.74654 27.1053C9.55728 27.0265 9.36803 26.8846 9.17878 26.853C7.57013 26.6164 6.6554 25.5125 5.83531 24.2665C5.01521 23.0364 5.22023 21.7905 6.35575 20.8442C6.54501 20.6865 6.73426 20.5288 6.93928 20.3711C8.10634 19.5352 9.4942 19.5825 10.4247 20.6392C11.3867 21.7274 12.6011 22.4056 13.7997 23.131C14.5252 23.5726 14.8406 24.2035 14.5883 25.0078C14.3517 25.7648 13.9574 25.749 13.1846 25.5755V25.5913ZM6.84466 15.1193C7.11276 15.7817 7.31779 16.2391 7.45973 16.6964C7.50704 16.8226 7.41242 17.0592 7.31779 17.1222C7.22316 17.1853 6.9866 17.1538 6.8762 17.0749C6.40307 16.7437 6.33998 16.0498 6.86043 15.1193H6.84466ZM14.6513 17.2957C13.2162 17.2957 12.5223 16.5072 12.4434 14.5831C12.4119 13.6684 13.3108 13.0533 14.5252 13.0848C16.0077 13.1322 17.0012 13.968 17.0012 15.1666C17.0012 16.0971 15.6607 17.2957 14.6513 17.2957ZM17.8529 20.3869C18.0421 21.207 17.4113 22.0428 16.4019 22.2478C15.8657 22.3425 15.3295 22.3582 14.7933 22.4056C13.9574 22.5002 13.6262 21.8693 13.3266 21.2858C13.0112 20.655 12.9638 19.9768 13.4527 19.409C13.5789 19.2513 13.9574 19.2513 14.2098 19.2513C14.7617 19.2513 15.3453 19.3933 15.8973 19.3302C16.9382 19.2198 17.6952 19.5668 17.8844 20.3711L17.8529 20.3869ZM15.913 29.613C15.7711 29.7233 15.3295 29.7076 15.2033 29.5656C14.8879 29.2502 14.6671 28.8244 14.399 28.4617C14.0836 28.0201 14.0994 27.6258 14.4463 27.2157C14.7617 26.8372 15.0614 26.443 15.4714 25.9383C15.6765 26.1118 15.85 26.2222 16.0077 26.3641C17.159 27.4838 17.1432 28.6194 15.9288 29.613H15.913ZM26.5428 22.7368C26.0854 23.1626 25.6438 23.6042 25.2022 24.0458C23.9405 25.3232 22.4107 26.2064 20.739 26.7268C18.326 27.4838 16.9066 25.8752 16.4808 24.1719C16.4177 23.9354 16.4808 23.4938 16.6385 23.3834C17.8529 22.5317 19.0988 21.7274 20.3447 20.9231C20.3605 20.9231 20.4078 20.9546 20.6444 21.0335C20.3289 21.4278 20.0608 21.7589 19.7296 22.1532C21.1017 21.964 22.3792 20.6707 22.6315 19.346C22.6631 19.1883 22.6631 19.0148 22.6946 18.8413C22.8681 17.3903 22.9785 17.2957 24.3821 17.6585C25.0287 17.8162 25.7227 17.9108 26.2589 18.2578C27.9148 19.3144 28.0095 21.3804 26.5585 22.721L26.5428 22.7368ZM30.6432 16.6333C30.5802 16.7122 30.5328 16.8068 30.4855 16.9014C29.6339 17.0276 28.7823 17.2011 27.9148 17.2326C27.5679 17.2326 27.1421 16.9645 26.9055 16.6964C26.8109 16.586 27.0947 16.0498 27.3313 15.8132C27.9779 15.1351 28.4037 15.1035 29.1923 15.6082C29.697 15.9236 30.1543 16.2864 30.6432 16.6333ZM27.9622 8.87396C28.6561 10.4826 28.7823 12.2174 27.5679 13.763C26.5901 15.0089 24.666 15.482 23.2466 14.7566C23.0416 14.6462 22.7892 14.4569 22.7262 14.2677C22.395 13.1637 22.1268 12.0597 21.843 10.9557C21.8903 10.8927 21.9218 10.8453 21.9691 10.798C22.6788 11.4289 23.4043 12.0439 24.2086 12.7536C24.2559 12.249 24.3033 11.8389 24.3506 11.3973C25.5334 12.0282 25.5965 12.3594 24.9026 14.0942C26.2904 14.5358 26.7951 14.2361 26.6847 12.9114C26.6216 12.2332 26.3535 11.555 26.1169 10.8927C25.8173 10.041 25.4546 9.18938 25.0918 8.35351C24.7606 7.58073 24.3979 6.82371 24.0667 6.08247C25.9592 6.05093 27.2525 7.21799 27.9779 8.88973L27.9622 8.87396ZM23.6093 1.98199C23.2466 2.91248 23.0258 3.66949 22.6631 4.36342C22.5054 4.6473 22.0638 4.78924 21.7483 5.01004C21.6379 4.63153 21.4014 4.25302 21.4487 3.90606C21.6064 2.78631 22.3634 2.23432 23.6093 1.99776V1.98199ZM20.8652 7.65958C21.2121 7.17068 21.6222 6.76063 22.3161 7.07605C23.01 7.39147 23.6724 7.69112 23.704 8.63739C23.704 9.07898 23.9563 9.5048 24.114 10.0252C24.0352 10.1514 23.9248 10.4038 23.7986 10.4195C23.4516 10.4668 23.0258 10.5299 22.7577 10.3564C22.1742 9.9937 21.6853 9.47326 21.1333 9.04744C20.6128 8.65316 20.4867 8.1958 20.8652 7.65958ZM20.739 14.4569C21.6222 14.725 22.048 15.419 21.9061 16.2864C21.7326 17.3273 20.6286 18.5259 19.635 18.7309C18.7518 18.9201 18.2314 18.6678 17.774 17.8477C17.3167 17.0118 17.364 16.6964 18.1841 15.8132C18.1841 16.2864 18.1841 16.6649 18.1841 17.0592C19.0988 16.8857 19.0357 16.0498 19.3511 15.5136L19.6035 15.5767C19.4931 16.2391 19.3827 16.8857 19.2723 17.6111C20.187 17.2011 20.534 16.5229 20.2974 15.7344C20.2343 15.5451 20.0451 15.3716 20.0293 15.1824C19.9978 14.9616 20.0293 14.6777 20.1712 14.52C20.2343 14.4254 20.5655 14.4412 20.739 14.4885V14.4569ZM18.1998 13.1637C18.0737 13.1637 17.916 12.9429 17.8687 12.801C17.774 12.3594 17.7267 11.9178 17.6636 11.4604C17.6005 11.1135 18.5626 11.3342 18.0894 10.6561C17.7583 10.1987 17.2694 10.1356 16.7489 10.4195C16.7174 10.4195 16.6858 10.4668 16.67 10.4984C16.4493 10.8138 16.1654 11.1923 15.7869 10.798C15.4241 10.4195 15.708 10.0252 16.0077 9.70982C16.3862 9.29978 16.812 9.00012 17.4271 9.09475C17.916 9.17361 18.4364 9.15784 18.9095 9.26823C19.84 9.48903 20.3763 10.3407 20.2185 11.2396C20.0451 12.249 19.0357 13.211 18.1998 13.1322V13.1637ZM11.1029 3.66949C12.3645 2.86517 13.642 2.15547 15.2822 2.26587C16.26 2.32895 17.2851 1.93467 18.1841 2.58129C18.6887 2.94402 19.1934 3.3383 19.6192 3.77989C20.1397 4.33188 20.2501 5.02581 19.982 5.76705C19.8558 6.11401 19.7927 6.50829 19.5877 6.80794C19.3984 7.10759 19.1303 7.50187 18.8307 7.54918C17.5059 7.75421 16.1654 7.83306 14.8091 7.35993C15.2507 7.24953 15.6922 7.13913 16.1338 7.04451C15.2033 6.58715 14.3044 6.49252 13.4685 7.12336C12.68 7.72267 11.8126 7.62804 10.9609 7.40724C10.6455 7.32839 10.2828 7.02874 10.1566 6.72909C9.79385 5.9563 10.3458 4.14263 11.1029 3.66949ZM9.84116 10.4353C10.5982 9.64674 11.4183 8.98435 12.68 9.20515C14.1151 9.47326 14.6356 10.4353 13.7997 11.6181C13.4527 12.107 12.8692 12.454 12.3645 12.7852C12.2226 12.8798 11.9229 12.7536 11.7022 12.7221C11.7652 12.5013 11.7652 12.2332 11.8914 12.0597C12.0807 11.8074 12.3645 11.6339 12.8061 11.2554C11.4498 11.4604 10.9451 12.2963 10.3458 13.3529C10.0462 12.5486 9.77808 11.9493 9.63614 11.3342C9.57306 11.0504 9.63614 10.6088 9.84116 10.4038V10.4353ZM9.58883 15.2139C10.1724 15.1982 10.5982 15.3401 10.5666 16.034C10.5351 16.6964 10.7086 17.2484 11.5602 17.4534C11.4498 17.138 11.3394 16.8068 11.1975 16.4283C12.6011 17.1065 12.9008 18.037 12.0649 18.8886C11.5129 19.4406 10.2039 19.4248 9.6046 18.6363C9.09992 17.9897 8.83181 17.1065 8.64256 16.2706C8.51639 15.7028 8.8949 15.2455 9.58883 15.2139ZM6.54501 4.94695C6.63963 4.55268 6.89197 4.48959 7.19162 4.6473C7.83824 5.02581 8.50062 5.40431 8.54793 6.30327C8.57948 6.74486 8.68987 7.20222 8.76873 7.75421C7.04968 7.62804 6.18227 6.46098 6.54501 4.94695ZM4.00586 11.5077C4.33705 9.86753 5.66182 9.56788 6.97082 9.26823C7.30202 9.18938 7.72784 9.26823 8.05903 9.3944C8.76873 9.69405 8.86336 9.96216 8.43754 10.6403C8.12211 11.145 8.0748 11.5866 8.20097 12.1701C8.31137 12.6906 8.10634 13.2741 8.04326 13.8261H7.71207C7.50704 13.4318 7.30202 13.0218 7.06545 12.6432C6.41884 11.5866 6.45038 11.3816 7.33356 10.5299C6.13496 9.97793 5.59874 10.246 5.58297 11.492C5.58297 12.1859 5.78799 12.8956 5.78799 13.6053C5.78799 14.4885 5.58297 15.3559 5.58297 16.2233C5.58297 16.8699 5.74068 17.5323 5.81953 18.1947C4.69979 18.3208 4.2582 18.1158 3.99009 16.9645C3.70621 15.7975 3.45387 14.5989 3.40656 13.4003C3.37501 12.7852 3.89546 12.1701 4.02163 11.5235L4.00586 11.5077ZM4.24243 19.4879C4.51053 19.6772 4.9679 19.8506 5.03098 20.1187C5.09406 20.3711 4.81018 20.8127 4.55785 21.0019C4.24243 21.2227 3.78506 21.27 3.39079 21.3962C2.96497 21.5224 2.36566 21.822 2.19218 21.2858C2.08178 20.9546 2.44452 20.3238 2.77571 20.0399C3.12268 19.7402 3.67467 19.6772 4.2582 19.4879H4.24243Z" fill="#FF6060"/>
</svg>
